M48
; DRILL file KiCad 10.0.0 date 2026-05-28T14:34:02
; FORMAT={-:-/ absolute / metric / decimal}
; #@! TF.CreationDate,2026-05-28T14:34:02+12:00
; #@! TF.GenerationSoftware,Kicad,Pcbnew,10.0.0
; #@! TF.FileFunction,Plated,1,2,PTH
FMAT,2
METRIC
; #@! TA.AperFunction,Plated,PTH,ComponentDrill
T1C0.850
; #@! TA.AperFunction,Plated,PTH,ComponentDrill
T2C2.700
%
G90
G05
T1
X134.5Y-86.645
X134.5Y-94.0
X134.5Y-101.645
X137.0Y-86.645
X137.0Y-94.0
X137.0Y-101.645
X139.5Y-86.645
X139.5Y-94.0
X139.5Y-101.645
X146.0Y-94.0
X146.0Y-101.645
X148.5Y-94.0
X148.5Y-101.645
X151.0Y-94.0
X151.0Y-101.645
X152.5Y-86.5
X155.0Y-86.5
X157.5Y-86.5
X159.0Y-94.0
X159.0Y-101.645
X161.0Y-114.0
X161.5Y-94.0
X161.5Y-101.645
X163.5Y-114.0
X164.0Y-94.0
X164.0Y-101.645
X166.0Y-114.0
X170.5Y-86.5
X170.5Y-94.0
X170.5Y-101.645
X173.0Y-86.5
X173.0Y-94.0
X173.0Y-101.645
X175.5Y-86.5
X175.5Y-94.0
X175.5Y-101.645
T2
X144.0Y-113.5
X149.0Y-113.5
M30
