%TF.GenerationSoftware,KiCad,Pcbnew,10.0.0*%
%TF.CreationDate,2026-05-28T14:34:12+12:00*%
%TF.ProjectId,robot_pdb,726f626f-745f-4706-9462-2e6b69636164,rev?*%
%TF.SameCoordinates,Original*%
%TF.FileFunction,Copper,L2,Bot*%
%TF.FilePolarity,Positive*%
%FSLAX46Y46*%
G04 Gerber Fmt 4.6, Leading zero omitted, Abs format (unit mm)*
G04 Created by KiCad (PCBNEW 10.0.0) date 2026-05-28 14:34:12*
%MOMM*%
%LPD*%
G01*
G04 APERTURE LIST*
G04 Aperture macros list*
%AMRoundRect*
0 Rectangle with rounded corners*
0 $1 Rounding radius*
0 $2 $3 $4 $5 $6 $7 $8 $9 X,Y pos of 4 corners*
0 Add a 4 corners polygon primitive as box body*
4,1,4,$2,$3,$4,$5,$6,$7,$8,$9,$2,$3,0*
0 Add four circle primitives for the rounded corners*
1,1,$1+$1,$2,$3*
1,1,$1+$1,$4,$5*
1,1,$1+$1,$6,$7*
1,1,$1+$1,$8,$9*
0 Add four rect primitives between the rounded corners*
20,1,$1+$1,$2,$3,$4,$5,0*
20,1,$1+$1,$4,$5,$6,$7,0*
20,1,$1+$1,$6,$7,$8,$9,0*
20,1,$1+$1,$8,$9,$2,$3,0*%
G04 Aperture macros list end*
%TA.AperFunction,ComponentPad*%
%ADD10RoundRect,0.250000X-0.600000X-0.675000X0.600000X-0.675000X0.600000X0.675000X-0.600000X0.675000X0*%
%TD*%
%TA.AperFunction,ComponentPad*%
%ADD11O,1.700000X1.850000*%
%TD*%
%TA.AperFunction,ComponentPad*%
%ADD12RoundRect,0.760000X-1.140000X-1.140000X1.140000X-1.140000X1.140000X1.140000X-1.140000X1.140000X0*%
%TD*%
%TA.AperFunction,ComponentPad*%
%ADD13C,3.800000*%
%TD*%
%TA.AperFunction,Conductor*%
%ADD14C,0.400000*%
%TD*%
G04 APERTURE END LIST*
D10*
%TO.P,MR1,1*%
%TO.N,GND*%
X170500000Y-86500000D03*
D11*
%TO.P,MR1,2*%
%TO.N,VCC*%
X173000000Y-86500000D03*
%TO.P,MR1,3*%
%TO.N,N/C*%
X175500000Y-86500000D03*
%TD*%
D10*
%TO.P,ML4,1*%
%TO.N,GND*%
X134500000Y-101645000D03*
D11*
%TO.P,ML4,2*%
%TO.N,VCC*%
X137000000Y-101645000D03*
%TO.P,ML4,3*%
%TO.N,N/C*%
X139500000Y-101645000D03*
%TD*%
D10*
%TO.P,ML3,1*%
%TO.N,GND*%
X146000000Y-94000000D03*
D11*
%TO.P,ML3,2*%
%TO.N,VCC*%
X148500000Y-94000000D03*
%TO.P,ML3,3*%
%TO.N,N/C*%
X151000000Y-94000000D03*
%TD*%
D10*
%TO.P,MC,1*%
%TO.N,GND*%
X152500000Y-86500000D03*
D11*
%TO.P,MC,2*%
%TO.N,VCC*%
X155000000Y-86500000D03*
%TO.P,MC,3*%
%TO.N,N/C*%
X157500000Y-86500000D03*
%TD*%
D10*
%TO.P,MR3,1*%
%TO.N,GND*%
X170500000Y-94000000D03*
D11*
%TO.P,MR3,2*%
%TO.N,VCC*%
X173000000Y-94000000D03*
%TO.P,MR3,3*%
%TO.N,N/C*%
X175500000Y-94000000D03*
%TD*%
D10*
%TO.P,Motor Driver,1*%
%TO.N,GND*%
X161000000Y-114000000D03*
D11*
%TO.P,Motor Driver,2*%
%TO.N,VCC*%
X163500000Y-114000000D03*
%TO.P,Motor Driver,3*%
%TO.N,N/C*%
X166000000Y-114000000D03*
%TD*%
D10*
%TO.P,MR5_6_7,1*%
%TO.N,GND*%
X170500000Y-101645000D03*
D11*
%TO.P,MR5_6_7,2*%
%TO.N,VCC*%
X173000000Y-101645000D03*
%TO.P,MR5_6_7,3*%
%TO.N,N/C*%
X175500000Y-101645000D03*
%TD*%
D10*
%TO.P,ML1,1*%
%TO.N,GND*%
X134500000Y-86645000D03*
D11*
%TO.P,ML1,2*%
%TO.N,VCC*%
X137000000Y-86645000D03*
%TO.P,ML1,3*%
%TO.N,N/C*%
X139500000Y-86645000D03*
%TD*%
D10*
%TO.P,MR2,1*%
%TO.N,GND*%
X159000000Y-94000000D03*
D11*
%TO.P,MR2,2*%
%TO.N,VCC*%
X161500000Y-94000000D03*
%TO.P,MR2,3*%
%TO.N,N/C*%
X164000000Y-94000000D03*
%TD*%
D10*
%TO.P,MR4,1*%
%TO.N,GND*%
X159000000Y-101645000D03*
D11*
%TO.P,MR4,2*%
%TO.N,VCC*%
X161500000Y-101645000D03*
%TO.P,MR4,3*%
%TO.N,N/C*%
X164000000Y-101645000D03*
%TD*%
D12*
%TO.P,Power,1*%
%TO.N,GND*%
X144000000Y-113500000D03*
D13*
%TO.P,Power,2*%
%TO.N,VCC*%
X149000000Y-113500000D03*
%TD*%
D10*
%TO.P,ML5_6_7,1*%
%TO.N,GND*%
X146000000Y-101645000D03*
D11*
%TO.P,ML5_6_7,2*%
%TO.N,VCC*%
X148500000Y-101645000D03*
%TO.P,ML5_6_7,3*%
%TO.N,N/C*%
X151000000Y-101645000D03*
%TD*%
D10*
%TO.P,ML2,1*%
%TO.N,GND*%
X134500000Y-94000000D03*
D11*
%TO.P,ML2,2*%
%TO.N,VCC*%
X137000000Y-94000000D03*
%TO.P,ML2,3*%
%TO.N,N/C*%
X139500000Y-94000000D03*
%TD*%
%TO.N,*%
D14*
X175500000Y-101645000D02*
X175500000Y-106000000D01*
X151000000Y-108000000D02*
X164000000Y-108000000D01*
X139500000Y-106000000D02*
X141500000Y-108000000D01*
X175500000Y-106000000D02*
X173500000Y-108000000D01*
X139500000Y-101645000D02*
X139500000Y-106000000D01*
X151000000Y-101645000D02*
X151000000Y-108000000D01*
X164000000Y-108000000D02*
X166000000Y-108000000D01*
X141500000Y-108000000D02*
X151000000Y-108000000D01*
X173500000Y-108000000D02*
X166000000Y-108000000D01*
X139500000Y-86645000D02*
X139500000Y-94000000D01*
X162000000Y-86500000D02*
X164000000Y-88500000D01*
X164000000Y-94000000D02*
X164000000Y-101645000D01*
X166000000Y-108000000D02*
X166000000Y-114000000D01*
X175500000Y-94000000D02*
X175500000Y-101645000D01*
X151000000Y-94000000D02*
X151000000Y-101645000D01*
X139500000Y-94000000D02*
X139500000Y-101645000D01*
X164000000Y-88500000D02*
X164000000Y-94000000D01*
X164000000Y-101645000D02*
X164000000Y-108000000D01*
X157500000Y-86500000D02*
X162000000Y-86500000D01*
X175500000Y-86500000D02*
X175500000Y-94000000D01*
%TD*%
%TA.AperFunction,Conductor*%
%TO.N,GND*%
G36*
X178057980Y-75500815D02*
G01*
X178205101Y-75511337D01*
X178222611Y-75513855D01*
X178414868Y-75555678D01*
X178471516Y-75586611D01*
X178607801Y-75626628D01*
X178632286Y-75636770D01*
X178752228Y-75702263D01*
X178804977Y-75731066D01*
X178819860Y-75740631D01*
X178977368Y-75858540D01*
X178990739Y-75870126D01*
X179129868Y-76009255D01*
X179141454Y-76022625D01*
X179259367Y-76180138D01*
X179259369Y-76180140D01*
X179268932Y-76195021D01*
X179338227Y-76321926D01*
X179363225Y-76367705D01*
X179370575Y-76383799D01*
X179439336Y-76568156D01*
X179444320Y-76585131D01*
X179486143Y-76777387D01*
X179488661Y-76794898D01*
X179499184Y-76942018D01*
X179499500Y-76950865D01*
X179499500Y-118049133D01*
X179499184Y-118057980D01*
X179488661Y-118205100D01*
X179486143Y-118222611D01*
X179444320Y-118414867D01*
X179439336Y-118431842D01*
X179370575Y-118616199D01*
X179363225Y-118632293D01*
X179268934Y-118804974D01*
X179259369Y-118819858D01*
X179141454Y-118977373D01*
X179129868Y-118990743D01*
X178990739Y-119129872D01*
X178977368Y-119141458D01*
X178819860Y-119259367D01*
X178804977Y-119268932D01*
X178632293Y-119363225D01*
X178616199Y-119370575D01*
X178431842Y-119439336D01*
X178414867Y-119444320D01*
X178222611Y-119486143D01*
X178205100Y-119488661D01*
X178069134Y-119498386D01*
X178057979Y-119499184D01*
X178049134Y-119499500D01*
X131950866Y-119499500D01*
X131942020Y-119499184D01*
X131930000Y-119498324D01*
X131794898Y-119488661D01*
X131777387Y-119486143D01*
X131585131Y-119444320D01*
X131568156Y-119439336D01*
X131383795Y-119370573D01*
X131367710Y-119363227D01*
X131195023Y-119268933D01*
X131180140Y-119259369D01*
X131180137Y-119259367D01*
X131022625Y-119141454D01*
X131009255Y-119129868D01*
X130870126Y-118990739D01*
X130858540Y-118977368D01*
X130740631Y-118819860D01*
X130731066Y-118804977D01*
X130636768Y-118632282D01*
X130629428Y-118616210D01*
X130560659Y-118431833D01*
X130555680Y-118414874D01*
X130513855Y-118222611D01*
X130511337Y-118205098D01*
X130506369Y-118135635D01*
X130500816Y-118057979D01*
X130500500Y-118049134D01*
X130500500Y-115852486D01*
X131749500Y-115852486D01*
X131749500Y-116147513D01*
X131768482Y-116291690D01*
X131788007Y-116439993D01*
X131788008Y-116439995D01*
X131864361Y-116724951D01*
X131864364Y-116724961D01*
X131977254Y-116997500D01*
X131977258Y-116997510D01*
X132124761Y-117252993D01*
X132304352Y-117487040D01*
X132304358Y-117487047D01*
X132512952Y-117695641D01*
X132512959Y-117695647D01*
X132747006Y-117875238D01*
X133002489Y-118022741D01*
X133002490Y-118022741D01*
X133002493Y-118022743D01*
X133275048Y-118135639D01*
X133560007Y-118211993D01*
X133852494Y-118250500D01*
X133852501Y-118250500D01*
X134147499Y-118250500D01*
X134147506Y-118250500D01*
X134439993Y-118211993D01*
X134724952Y-118135639D01*
X134997507Y-118022743D01*
X135252994Y-117875238D01*
X135487042Y-117695646D01*
X135695646Y-117487042D01*
X135875238Y-117252994D01*
X136022743Y-116997507D01*
X136135639Y-116724952D01*
X136211993Y-116439993D01*
X136250500Y-116147506D01*
X136250500Y-115852494D01*
X136211993Y-115560007D01*
X136135639Y-115275048D01*
X136022743Y-115002493D01*
X135995199Y-114954786D01*
X135875238Y-114747006D01*
X135695647Y-114512959D01*
X135695641Y-114512952D01*
X135487047Y-114304358D01*
X135487040Y-114304352D01*
X135252993Y-114124761D01*
X134997510Y-113977258D01*
X134997500Y-113977254D01*
X134724961Y-113864364D01*
X134724954Y-113864362D01*
X134724952Y-113864361D01*
X134439993Y-113788007D01*
X134391113Y-113781571D01*
X134147513Y-113749500D01*
X134147506Y-113749500D01*
X133852494Y-113749500D01*
X133852486Y-113749500D01*
X133574085Y-113786153D01*
X133560007Y-113788007D01*
X133445410Y-113818713D01*
X133275048Y-113864361D01*
X133275038Y-113864364D01*
X133002499Y-113977254D01*
X133002489Y-113977258D01*
X132747006Y-114124761D01*
X132512959Y-114304352D01*
X132512952Y-114304358D01*
X132304358Y-114512952D01*
X132304352Y-114512959D01*
X132124761Y-114747006D01*
X131977258Y-115002489D01*
X131977254Y-115002499D01*
X131864364Y-115275038D01*
X131864361Y-115275048D01*
X131788008Y-115560004D01*
X131788006Y-115560015D01*
X131749500Y-115852486D01*
X130500500Y-115852486D01*
X130500500Y-113365186D01*
X146599500Y-113365186D01*
X146599500Y-113634813D01*
X146629686Y-113902719D01*
X146629688Y-113902731D01*
X146689684Y-114165594D01*
X146689687Y-114165602D01*
X146778734Y-114420082D01*
X146895714Y-114662994D01*
X146895716Y-114662997D01*
X147039162Y-114891289D01*
X147207266Y-115102085D01*
X147397915Y-115292734D01*
X147608711Y-115460838D01*
X147837003Y-115604284D01*
X148079921Y-115721267D01*
X148271049Y-115788145D01*
X148334397Y-115810312D01*
X148334405Y-115810315D01*
X148334408Y-115810315D01*
X148334409Y-115810316D01*
X148597268Y-115870312D01*
X148865187Y-115900499D01*
X148865188Y-115900500D01*
X148865191Y-115900500D01*
X149134812Y-115900500D01*
X149134812Y-115900499D01*
X149402732Y-115870312D01*
X149480833Y-115852486D01*
X173749500Y-115852486D01*
X173749500Y-116147513D01*
X173768482Y-116291690D01*
X173788007Y-116439993D01*
X173788008Y-116439995D01*
X173864361Y-116724951D01*
X173864364Y-116724961D01*
X173977254Y-116997500D01*
X173977258Y-116997510D01*
X174124761Y-117252993D01*
X174304352Y-117487040D01*
X174304358Y-117487047D01*
X174512952Y-117695641D01*
X174512959Y-117695647D01*
X174747006Y-117875238D01*
X175002489Y-118022741D01*
X175002490Y-118022741D01*
X175002493Y-118022743D01*
X175275048Y-118135639D01*
X175560007Y-118211993D01*
X175852494Y-118250500D01*
X175852501Y-118250500D01*
X176147499Y-118250500D01*
X176147506Y-118250500D01*
X176439993Y-118211993D01*
X176724952Y-118135639D01*
X176997507Y-118022743D01*
X177252994Y-117875238D01*
X177487042Y-117695646D01*
X177695646Y-117487042D01*
X177875238Y-117252994D01*
X178022743Y-116997507D01*
X178135639Y-116724952D01*
X178211993Y-116439993D01*
X178250500Y-116147506D01*
X178250500Y-115852494D01*
X178211993Y-115560007D01*
X178135639Y-115275048D01*
X178022743Y-115002493D01*
X177995199Y-114954786D01*
X177875238Y-114747006D01*
X177695647Y-114512959D01*
X177695641Y-114512952D01*
X177487047Y-114304358D01*
X177487040Y-114304352D01*
X177252993Y-114124761D01*
X176997510Y-113977258D01*
X176997500Y-113977254D01*
X176724961Y-113864364D01*
X176724954Y-113864362D01*
X176724952Y-113864361D01*
X176439993Y-113788007D01*
X176391113Y-113781571D01*
X176147513Y-113749500D01*
X176147506Y-113749500D01*
X175852494Y-113749500D01*
X175852486Y-113749500D01*
X175574085Y-113786153D01*
X175560007Y-113788007D01*
X175445410Y-113818713D01*
X175275048Y-113864361D01*
X175275038Y-113864364D01*
X175002499Y-113977254D01*
X175002489Y-113977258D01*
X174747006Y-114124761D01*
X174512959Y-114304352D01*
X174512952Y-114304358D01*
X174304358Y-114512952D01*
X174304352Y-114512959D01*
X174124761Y-114747006D01*
X173977258Y-115002489D01*
X173977254Y-115002499D01*
X173864364Y-115275038D01*
X173864361Y-115275048D01*
X173788008Y-115560004D01*
X173788006Y-115560015D01*
X173749500Y-115852486D01*
X149480833Y-115852486D01*
X149665591Y-115810316D01*
X149920079Y-115721267D01*
X150162997Y-115604284D01*
X150391289Y-115460838D01*
X150602085Y-115292734D01*
X150792734Y-115102085D01*
X150960838Y-114891289D01*
X151104284Y-114662997D01*
X151221267Y-114420079D01*
X151310316Y-114165591D01*
X151370312Y-113902732D01*
X151400500Y-113634809D01*
X151400500Y-113365191D01*
X151370312Y-113097268D01*
X151310316Y-112834409D01*
X151221267Y-112579921D01*
X151104284Y-112337003D01*
X150960838Y-112108711D01*
X150792734Y-111897915D01*
X150602085Y-111707266D01*
X150391289Y-111539162D01*
X150162997Y-111395716D01*
X150162994Y-111395714D01*
X149920082Y-111278734D01*
X149665602Y-111189687D01*
X149665594Y-111189684D01*
X149468446Y-111144687D01*
X149402732Y-111129688D01*
X149402728Y-111129687D01*
X149402719Y-111129686D01*
X149134813Y-111099500D01*
X149134809Y-111099500D01*
X148865191Y-111099500D01*
X148865186Y-111099500D01*
X148597280Y-111129686D01*
X148597268Y-111129688D01*
X148334405Y-111189684D01*
X148334397Y-111189687D01*
X148079917Y-111278734D01*
X147837005Y-111395714D01*
X147608712Y-111539161D01*
X147397915Y-111707265D01*
X147207265Y-111897915D01*
X147039161Y-112108712D01*
X146895714Y-112337005D01*
X146778734Y-112579917D01*
X146689687Y-112834397D01*
X146689684Y-112834405D01*
X146629688Y-113097268D01*
X146629686Y-113097280D01*
X146599500Y-113365186D01*
X130500500Y-113365186D01*
X130500500Y-86463713D01*
X135649500Y-86463713D01*
X135649500Y-86826287D01*
X135682754Y-87036243D01*
X135747925Y-87236819D01*
X135748444Y-87238414D01*
X135844951Y-87427820D01*
X135969890Y-87599786D01*
X136120213Y-87750109D01*
X136292179Y-87875048D01*
X136292181Y-87875049D01*
X136292184Y-87875051D01*
X136481588Y-87971557D01*
X136683757Y-88037246D01*
X136893713Y-88070500D01*
X136893714Y-88070500D01*
X137106286Y-88070500D01*
X137106287Y-88070500D01*
X137316243Y-88037246D01*
X137518412Y-87971557D01*
X137707816Y-87875051D01*
X137774563Y-87826557D01*
X137879786Y-87750109D01*
X137879788Y-87750106D01*
X137879792Y-87750104D01*
X138030104Y-87599792D01*
X138149683Y-87435204D01*
X138205011Y-87392540D01*
X138274624Y-87386561D01*
X138336420Y-87419166D01*
X138350313Y-87435199D01*
X138469892Y-87599786D01*
X138469896Y-87599792D01*
X138620211Y-87750107D01*
X138691200Y-87801682D01*
X138748385Y-87843229D01*
X138791051Y-87898558D01*
X138799500Y-87943547D01*
X138799500Y-92701452D01*
X138779815Y-92768491D01*
X138748385Y-92801770D01*
X138620213Y-92894890D01*
X138469894Y-93045209D01*
X138469890Y-93045214D01*
X138350318Y-93209793D01*
X138294989Y-93252459D01*
X138225375Y-93258438D01*
X138163580Y-93225833D01*
X138149682Y-93209793D01*
X138030109Y-93045214D01*
X138030105Y-93045209D01*
X137879786Y-92894890D01*
X137707820Y-92769951D01*
X137518414Y-92673444D01*
X137518413Y-92673443D01*
X137518412Y-92673443D01*
X137316243Y-92607754D01*
X137316241Y-92607753D01*
X137316240Y-92607753D01*
X137154957Y-92582208D01*
X137106287Y-92574500D01*
X136893713Y-92574500D01*
X136845042Y-92582208D01*
X136683760Y-92607753D01*
X136481585Y-92673444D01*
X136292179Y-92769951D01*
X136120213Y-92894890D01*
X135969890Y-93045213D01*
X135844951Y-93217179D01*
X135748444Y-93406585D01*
X135682753Y-93608760D01*
X135649500Y-93818713D01*
X135649500Y-94181286D01*
X135682753Y-94391239D01*
X135748444Y-94593414D01*
X135844951Y-94782820D01*
X135969890Y-94954786D01*
X136120213Y-95105109D01*
X136292179Y-95230048D01*
X136292181Y-95230049D01*
X136292184Y-95230051D01*
X136481588Y-95326557D01*
X136683757Y-95392246D01*
X136893713Y-95425500D01*
X136893714Y-95425500D01*
X137106286Y-95425500D01*
X137106287Y-95425500D01*
X137316243Y-95392246D01*
X137518412Y-95326557D01*
X137707816Y-95230051D01*
X137751617Y-95198228D01*
X137879786Y-95105109D01*
X137879788Y-95105106D01*
X137879792Y-95105104D01*
X138030104Y-94954792D01*
X138149683Y-94790204D01*
X138205011Y-94747540D01*
X138274624Y-94741561D01*
X138336420Y-94774166D01*
X138350313Y-94790199D01*
X138469892Y-94954786D01*
X138469896Y-94954792D01*
X138620211Y-95105107D01*
X138691200Y-95156682D01*
X138748385Y-95198229D01*
X138791051Y-95253558D01*
X138799500Y-95298547D01*
X138799500Y-100346452D01*
X138779815Y-100413491D01*
X138748385Y-100446770D01*
X138620213Y-100539890D01*
X138469894Y-100690209D01*
X138469890Y-100690214D01*
X138350318Y-100854793D01*
X138294989Y-100897459D01*
X138225375Y-100903438D01*
X138163580Y-100870833D01*
X138149682Y-100854793D01*
X138030109Y-100690214D01*
X138030105Y-100690209D01*
X137879786Y-100539890D01*
X137707820Y-100414951D01*
X137518414Y-100318444D01*
X137518413Y-100318443D01*
X137518412Y-100318443D01*
X137316243Y-100252754D01*
X137316241Y-100252753D01*
X137316240Y-100252753D01*
X137154957Y-100227208D01*
X137106287Y-100219500D01*
X136893713Y-100219500D01*
X136845042Y-100227208D01*
X136683760Y-100252753D01*
X136481585Y-100318444D01*
X136292179Y-100414951D01*
X136120213Y-100539890D01*
X135969890Y-100690213D01*
X135844951Y-100862179D01*
X135748444Y-101051585D01*
X135682753Y-101253760D01*
X135649500Y-101463713D01*
X135649500Y-101826286D01*
X135682753Y-102036239D01*
X135748444Y-102238414D01*
X135844951Y-102427820D01*
X135969890Y-102599786D01*
X136120213Y-102750109D01*
X136292179Y-102875048D01*
X136292181Y-102875049D01*
X136292184Y-102875051D01*
X136481588Y-102971557D01*
X136683757Y-103037246D01*
X136893713Y-103070500D01*
X136893714Y-103070500D01*
X137106286Y-103070500D01*
X137106287Y-103070500D01*
X137316243Y-103037246D01*
X137518412Y-102971557D01*
X137707816Y-102875051D01*
X137751617Y-102843228D01*
X137879786Y-102750109D01*
X137879788Y-102750106D01*
X137879792Y-102750104D01*
X138030104Y-102599792D01*
X138149683Y-102435204D01*
X138205011Y-102392540D01*
X138274624Y-102386561D01*
X138336420Y-102419166D01*
X138350313Y-102435199D01*
X138469892Y-102599786D01*
X138469896Y-102599792D01*
X138620211Y-102750107D01*
X138691200Y-102801682D01*
X138748385Y-102843229D01*
X138791051Y-102898558D01*
X138799500Y-102943547D01*
X138799500Y-105931006D01*
X138799500Y-106068994D01*
X138799500Y-106068996D01*
X138799499Y-106068996D01*
X138826418Y-106204322D01*
X138826421Y-106204332D01*
X138879222Y-106331807D01*
X138955887Y-106446545D01*
X141053454Y-108544112D01*
X141168192Y-108620777D01*
X141295667Y-108673578D01*
X141295672Y-108673580D01*
X141295676Y-108673580D01*
X141295677Y-108673581D01*
X141431004Y-108700500D01*
X141431007Y-108700500D01*
X150931007Y-108700500D01*
X151068993Y-108700500D01*
X163931007Y-108700500D01*
X164068993Y-108700500D01*
X165175500Y-108700500D01*
X165242539Y-108720185D01*
X165288294Y-108772989D01*
X165299500Y-108824500D01*
X165299500Y-112701452D01*
X165279815Y-112768491D01*
X165248385Y-112801770D01*
X165120213Y-112894890D01*
X164969894Y-113045209D01*
X164969890Y-113045214D01*
X164850318Y-113209793D01*
X164794989Y-113252459D01*
X164725375Y-113258438D01*
X164663580Y-113225833D01*
X164649682Y-113209793D01*
X164530109Y-113045214D01*
X164530105Y-113045209D01*
X164379786Y-112894890D01*
X164207820Y-112769951D01*
X164018414Y-112673444D01*
X164018413Y-112673443D01*
X164018412Y-112673443D01*
X163816243Y-112607754D01*
X163816241Y-112607753D01*
X163816240Y-112607753D01*
X163654957Y-112582208D01*
X163606287Y-112574500D01*
X163393713Y-112574500D01*
X163345042Y-112582208D01*
X163183760Y-112607753D01*
X162981585Y-112673444D01*
X162792179Y-112769951D01*
X162620213Y-112894890D01*
X162469890Y-113045213D01*
X162344951Y-113217179D01*
X162248444Y-113406585D01*
X162182753Y-113608760D01*
X162154363Y-113788007D01*
X162149500Y-113818713D01*
X162149500Y-114181287D01*
X162182754Y-114391243D01*
X162192124Y-114420082D01*
X162248444Y-114593414D01*
X162344951Y-114782820D01*
X162469890Y-114954786D01*
X162620213Y-115105109D01*
X162792179Y-115230048D01*
X162792181Y-115230049D01*
X162792184Y-115230051D01*
X162981588Y-115326557D01*
X163183757Y-115392246D01*
X163393713Y-115425500D01*
X163393714Y-115425500D01*
X163606286Y-115425500D01*
X163606287Y-115425500D01*
X163816243Y-115392246D01*
X164018412Y-115326557D01*
X164207816Y-115230051D01*
X164264986Y-115188515D01*
X164379786Y-115105109D01*
X164379788Y-115105106D01*
X164379792Y-115105104D01*
X164530104Y-114954792D01*
X164649683Y-114790204D01*
X164705011Y-114747540D01*
X164774624Y-114741561D01*
X164836420Y-114774166D01*
X164850313Y-114790199D01*
X164923759Y-114891289D01*
X164969896Y-114954792D01*
X165120213Y-115105109D01*
X165292179Y-115230048D01*
X165292181Y-115230049D01*
X165292184Y-115230051D01*
X165481588Y-115326557D01*
X165683757Y-115392246D01*
X165893713Y-115425500D01*
X165893714Y-115425500D01*
X166106286Y-115425500D01*
X166106287Y-115425500D01*
X166316243Y-115392246D01*
X166518412Y-115326557D01*
X166707816Y-115230051D01*
X166764986Y-115188515D01*
X166879786Y-115105109D01*
X166879788Y-115105106D01*
X166879792Y-115105104D01*
X167030104Y-114954792D01*
X167030106Y-114954788D01*
X167030109Y-114954786D01*
X167155048Y-114782820D01*
X167155047Y-114782820D01*
X167155051Y-114782816D01*
X167251557Y-114593412D01*
X167317246Y-114391243D01*
X167350500Y-114181287D01*
X167350500Y-113818713D01*
X167317246Y-113608757D01*
X167251557Y-113406588D01*
X167155051Y-113217184D01*
X167155049Y-113217181D01*
X167155048Y-113217179D01*
X167030109Y-113045213D01*
X166879786Y-112894890D01*
X166751615Y-112801770D01*
X166708949Y-112746441D01*
X166700500Y-112701452D01*
X166700500Y-108824500D01*
X166720185Y-108757461D01*
X166772989Y-108711706D01*
X166824500Y-108700500D01*
X173568996Y-108700500D01*
X173660040Y-108682389D01*
X173704328Y-108673580D01*
X173768069Y-108647177D01*
X173831807Y-108620777D01*
X173831808Y-108620776D01*
X173831811Y-108620775D01*
X173946543Y-108544114D01*
X176044114Y-106446543D01*
X176120775Y-106331811D01*
X176173580Y-106204328D01*
X176182389Y-106160041D01*
X176200500Y-106068995D01*
X176200500Y-102943547D01*
X176220185Y-102876508D01*
X176251614Y-102843230D01*
X176379792Y-102750104D01*
X176530104Y-102599792D01*
X176530106Y-102599788D01*
X176530109Y-102599786D01*
X176655048Y-102427820D01*
X176655047Y-102427820D01*
X176655051Y-102427816D01*
X176751557Y-102238412D01*
X176817246Y-102036243D01*
X176850500Y-101826287D01*
X176850500Y-101463713D01*
X176817246Y-101253757D01*
X176751557Y-101051588D01*
X176655051Y-100862184D01*
X176655049Y-100862181D01*
X176655048Y-100862179D01*
X176530109Y-100690213D01*
X176379786Y-100539890D01*
X176251615Y-100446770D01*
X176208949Y-100391441D01*
X176200500Y-100346452D01*
X176200500Y-95298547D01*
X176220185Y-95231508D01*
X176251614Y-95198230D01*
X176379792Y-95105104D01*
X176530104Y-94954792D01*
X176530106Y-94954788D01*
X176530109Y-94954786D01*
X176655048Y-94782820D01*
X176655047Y-94782820D01*
X176655051Y-94782816D01*
X176751557Y-94593412D01*
X176817246Y-94391243D01*
X176850500Y-94181287D01*
X176850500Y-93818713D01*
X176817246Y-93608757D01*
X176751557Y-93406588D01*
X176655051Y-93217184D01*
X176655049Y-93217181D01*
X176655048Y-93217179D01*
X176530109Y-93045213D01*
X176379786Y-92894890D01*
X176251615Y-92801770D01*
X176208949Y-92746441D01*
X176200500Y-92701452D01*
X176200500Y-87798547D01*
X176220185Y-87731508D01*
X176251614Y-87698230D01*
X176379792Y-87605104D01*
X176530104Y-87454792D01*
X176530106Y-87454788D01*
X176530109Y-87454786D01*
X176655048Y-87282820D01*
X176655049Y-87282819D01*
X176655051Y-87282816D01*
X176751557Y-87093412D01*
X176817246Y-86891243D01*
X176850500Y-86681287D01*
X176850500Y-86318713D01*
X176817246Y-86108757D01*
X176751557Y-85906588D01*
X176655051Y-85717184D01*
X176655049Y-85717181D01*
X176655048Y-85717179D01*
X176530109Y-85545213D01*
X176379786Y-85394890D01*
X176207820Y-85269951D01*
X176018414Y-85173444D01*
X176018413Y-85173443D01*
X176018412Y-85173443D01*
X175816243Y-85107754D01*
X175816241Y-85107753D01*
X175816240Y-85107753D01*
X175654957Y-85082208D01*
X175606287Y-85074500D01*
X175393713Y-85074500D01*
X175345042Y-85082208D01*
X175183760Y-85107753D01*
X174981585Y-85173444D01*
X174792179Y-85269951D01*
X174620213Y-85394890D01*
X174469894Y-85545209D01*
X174469890Y-85545214D01*
X174350318Y-85709793D01*
X174294989Y-85752459D01*
X174225375Y-85758438D01*
X174163580Y-85725833D01*
X174149682Y-85709793D01*
X174030109Y-85545214D01*
X174030105Y-85545209D01*
X173879786Y-85394890D01*
X173707820Y-85269951D01*
X173518414Y-85173444D01*
X173518413Y-85173443D01*
X173518412Y-85173443D01*
X173316243Y-85107754D01*
X173316241Y-85107753D01*
X173316240Y-85107753D01*
X173154957Y-85082208D01*
X173106287Y-85074500D01*
X172893713Y-85074500D01*
X172845042Y-85082208D01*
X172683760Y-85107753D01*
X172481585Y-85173444D01*
X172292179Y-85269951D01*
X172120213Y-85394890D01*
X171969890Y-85545213D01*
X171844951Y-85717179D01*
X171748444Y-85906585D01*
X171682753Y-86108760D01*
X171649500Y-86318713D01*
X171649500Y-86681287D01*
X171682754Y-86891243D01*
X171729866Y-87036239D01*
X171748444Y-87093414D01*
X171844951Y-87282820D01*
X171969890Y-87454786D01*
X172120213Y-87605109D01*
X172292179Y-87730048D01*
X172292181Y-87730049D01*
X172292184Y-87730051D01*
X172481588Y-87826557D01*
X172683757Y-87892246D01*
X172893713Y-87925500D01*
X172893714Y-87925500D01*
X173106286Y-87925500D01*
X173106287Y-87925500D01*
X173316243Y-87892246D01*
X173518412Y-87826557D01*
X173707816Y-87730051D01*
X173751617Y-87698228D01*
X173879786Y-87605109D01*
X173879788Y-87605106D01*
X173879792Y-87605104D01*
X174030104Y-87454792D01*
X174149683Y-87290204D01*
X174205011Y-87247540D01*
X174274624Y-87241561D01*
X174336420Y-87274166D01*
X174350313Y-87290199D01*
X174450297Y-87427816D01*
X174469896Y-87454792D01*
X174620211Y-87605107D01*
X174691200Y-87656682D01*
X174748385Y-87698229D01*
X174791051Y-87753558D01*
X174799500Y-87798547D01*
X174799500Y-92701452D01*
X174779815Y-92768491D01*
X174748385Y-92801770D01*
X174620213Y-92894890D01*
X174469894Y-93045209D01*
X174469890Y-93045214D01*
X174350318Y-93209793D01*
X174294989Y-93252459D01*
X174225375Y-93258438D01*
X174163580Y-93225833D01*
X174149682Y-93209793D01*
X174030109Y-93045214D01*
X174030105Y-93045209D01*
X173879786Y-92894890D01*
X173707820Y-92769951D01*
X173518414Y-92673444D01*
X173518413Y-92673443D01*
X173518412Y-92673443D01*
X173316243Y-92607754D01*
X173316241Y-92607753D01*
X173316240Y-92607753D01*
X173154957Y-92582208D01*
X173106287Y-92574500D01*
X172893713Y-92574500D01*
X172845042Y-92582208D01*
X172683760Y-92607753D01*
X172481585Y-92673444D01*
X172292179Y-92769951D01*
X172120213Y-92894890D01*
X171969890Y-93045213D01*
X171844951Y-93217179D01*
X171748444Y-93406585D01*
X171682753Y-93608760D01*
X171649500Y-93818713D01*
X171649500Y-94181286D01*
X171682753Y-94391239D01*
X171748444Y-94593414D01*
X171844951Y-94782820D01*
X171969890Y-94954786D01*
X172120213Y-95105109D01*
X172292179Y-95230048D01*
X172292181Y-95230049D01*
X172292184Y-95230051D01*
X172481588Y-95326557D01*
X172683757Y-95392246D01*
X172893713Y-95425500D01*
X172893714Y-95425500D01*
X173106286Y-95425500D01*
X173106287Y-95425500D01*
X173316243Y-95392246D01*
X173518412Y-95326557D01*
X173707816Y-95230051D01*
X173751617Y-95198228D01*
X173879786Y-95105109D01*
X173879788Y-95105106D01*
X173879792Y-95105104D01*
X174030104Y-94954792D01*
X174149683Y-94790204D01*
X174205011Y-94747540D01*
X174274624Y-94741561D01*
X174336420Y-94774166D01*
X174350313Y-94790199D01*
X174469892Y-94954786D01*
X174469896Y-94954792D01*
X174620211Y-95105107D01*
X174691200Y-95156682D01*
X174748385Y-95198229D01*
X174791051Y-95253558D01*
X174799500Y-95298547D01*
X174799500Y-100346452D01*
X174779815Y-100413491D01*
X174748385Y-100446770D01*
X174620213Y-100539890D01*
X174469894Y-100690209D01*
X174469890Y-100690214D01*
X174350318Y-100854793D01*
X174294989Y-100897459D01*
X174225375Y-100903438D01*
X174163580Y-100870833D01*
X174149682Y-100854793D01*
X174030109Y-100690214D01*
X174030105Y-100690209D01*
X173879786Y-100539890D01*
X173707820Y-100414951D01*
X173518414Y-100318444D01*
X173518413Y-100318443D01*
X173518412Y-100318443D01*
X173316243Y-100252754D01*
X173316241Y-100252753D01*
X173316240Y-100252753D01*
X173154957Y-100227208D01*
X173106287Y-100219500D01*
X172893713Y-100219500D01*
X172845042Y-100227208D01*
X172683760Y-100252753D01*
X172481585Y-100318444D01*
X172292179Y-100414951D01*
X172120213Y-100539890D01*
X171969890Y-100690213D01*
X171844951Y-100862179D01*
X171748444Y-101051585D01*
X171682753Y-101253760D01*
X171649500Y-101463713D01*
X171649500Y-101826286D01*
X171682753Y-102036239D01*
X171748444Y-102238414D01*
X171844951Y-102427820D01*
X171969890Y-102599786D01*
X172120213Y-102750109D01*
X172292179Y-102875048D01*
X172292181Y-102875049D01*
X172292184Y-102875051D01*
X172481588Y-102971557D01*
X172683757Y-103037246D01*
X172893713Y-103070500D01*
X172893714Y-103070500D01*
X173106286Y-103070500D01*
X173106287Y-103070500D01*
X173316243Y-103037246D01*
X173518412Y-102971557D01*
X173707816Y-102875051D01*
X173751617Y-102843228D01*
X173879786Y-102750109D01*
X173879788Y-102750106D01*
X173879792Y-102750104D01*
X174030104Y-102599792D01*
X174149683Y-102435204D01*
X174205011Y-102392540D01*
X174274624Y-102386561D01*
X174336420Y-102419166D01*
X174350313Y-102435199D01*
X174469892Y-102599786D01*
X174469896Y-102599792D01*
X174620211Y-102750107D01*
X174691200Y-102801682D01*
X174748385Y-102843229D01*
X174791051Y-102898558D01*
X174799500Y-102943547D01*
X174799500Y-105658481D01*
X174779815Y-105725520D01*
X174763181Y-105746162D01*
X173246162Y-107263181D01*
X173184839Y-107296666D01*
X173158481Y-107299500D01*
X164824500Y-107299500D01*
X164757461Y-107279815D01*
X164711706Y-107227011D01*
X164700500Y-107175500D01*
X164700500Y-102943547D01*
X164720185Y-102876508D01*
X164751614Y-102843230D01*
X164879792Y-102750104D01*
X165030104Y-102599792D01*
X165030106Y-102599788D01*
X165030109Y-102599786D01*
X165155048Y-102427820D01*
X165155047Y-102427820D01*
X165155051Y-102427816D01*
X165251557Y-102238412D01*
X165317246Y-102036243D01*
X165350500Y-101826287D01*
X165350500Y-101463713D01*
X165317246Y-101253757D01*
X165251557Y-101051588D01*
X165155051Y-100862184D01*
X165155049Y-100862181D01*
X165155048Y-100862179D01*
X165030109Y-100690213D01*
X164879786Y-100539890D01*
X164751615Y-100446770D01*
X164708949Y-100391441D01*
X164700500Y-100346452D01*
X164700500Y-95298547D01*
X164720185Y-95231508D01*
X164751614Y-95198230D01*
X164879792Y-95105104D01*
X165030104Y-94954792D01*
X165030106Y-94954788D01*
X165030109Y-94954786D01*
X165155048Y-94782820D01*
X165155047Y-94782820D01*
X165155051Y-94782816D01*
X165251557Y-94593412D01*
X165317246Y-94391243D01*
X165350500Y-94181287D01*
X165350500Y-93818713D01*
X165317246Y-93608757D01*
X165251557Y-93406588D01*
X165155051Y-93217184D01*
X165155049Y-93217181D01*
X165155048Y-93217179D01*
X165030109Y-93045213D01*
X164879786Y-92894890D01*
X164751615Y-92801770D01*
X164708949Y-92746441D01*
X164700500Y-92701452D01*
X164700500Y-88431004D01*
X164673581Y-88295677D01*
X164673580Y-88295676D01*
X164673580Y-88295672D01*
X164673578Y-88295667D01*
X164620777Y-88168192D01*
X164544112Y-88053454D01*
X162446545Y-85955887D01*
X162331807Y-85879222D01*
X162204332Y-85826421D01*
X162204322Y-85826418D01*
X162068996Y-85799500D01*
X162068994Y-85799500D01*
X162068993Y-85799500D01*
X158772981Y-85799500D01*
X158705942Y-85779815D01*
X158662497Y-85731797D01*
X158655049Y-85717180D01*
X158530109Y-85545213D01*
X158379786Y-85394890D01*
X158207820Y-85269951D01*
X158018414Y-85173444D01*
X158018413Y-85173443D01*
X158018412Y-85173443D01*
X157816243Y-85107754D01*
X157816241Y-85107753D01*
X157816240Y-85107753D01*
X157654957Y-85082208D01*
X157606287Y-85074500D01*
X157393713Y-85074500D01*
X157345042Y-85082208D01*
X157183760Y-85107753D01*
X156981585Y-85173444D01*
X156792179Y-85269951D01*
X156620213Y-85394890D01*
X156469894Y-85545209D01*
X156469890Y-85545214D01*
X156350318Y-85709793D01*
X156294989Y-85752459D01*
X156225375Y-85758438D01*
X156163580Y-85725833D01*
X156149682Y-85709793D01*
X156030109Y-85545214D01*
X156030105Y-85545209D01*
X155879786Y-85394890D01*
X155707820Y-85269951D01*
X155518414Y-85173444D01*
X155518413Y-85173443D01*
X155518412Y-85173443D01*
X155316243Y-85107754D01*
X155316241Y-85107753D01*
X155316240Y-85107753D01*
X155154957Y-85082208D01*
X155106287Y-85074500D01*
X154893713Y-85074500D01*
X154845042Y-85082208D01*
X154683760Y-85107753D01*
X154481585Y-85173444D01*
X154292179Y-85269951D01*
X154120213Y-85394890D01*
X153969890Y-85545213D01*
X153844951Y-85717179D01*
X153748444Y-85906585D01*
X153682753Y-86108760D01*
X153649500Y-86318713D01*
X153649500Y-86681287D01*
X153682754Y-86891243D01*
X153729866Y-87036239D01*
X153748444Y-87093414D01*
X153844951Y-87282820D01*
X153969890Y-87454786D01*
X154120213Y-87605109D01*
X154292179Y-87730048D01*
X154292181Y-87730049D01*
X154292184Y-87730051D01*
X154481588Y-87826557D01*
X154683757Y-87892246D01*
X154893713Y-87925500D01*
X154893714Y-87925500D01*
X155106286Y-87925500D01*
X155106287Y-87925500D01*
X155316243Y-87892246D01*
X155518412Y-87826557D01*
X155707816Y-87730051D01*
X155751617Y-87698228D01*
X155879786Y-87605109D01*
X155879788Y-87605106D01*
X155879792Y-87605104D01*
X156030104Y-87454792D01*
X156149683Y-87290204D01*
X156205011Y-87247540D01*
X156274624Y-87241561D01*
X156336420Y-87274166D01*
X156350313Y-87290199D01*
X156450297Y-87427816D01*
X156469896Y-87454792D01*
X156620213Y-87605109D01*
X156792179Y-87730048D01*
X156792181Y-87730049D01*
X156792184Y-87730051D01*
X156981588Y-87826557D01*
X157183757Y-87892246D01*
X157393713Y-87925500D01*
X157393714Y-87925500D01*
X157606286Y-87925500D01*
X157606287Y-87925500D01*
X157816243Y-87892246D01*
X158018412Y-87826557D01*
X158207816Y-87730051D01*
X158251617Y-87698228D01*
X158379786Y-87605109D01*
X158379788Y-87605106D01*
X158379792Y-87605104D01*
X158530104Y-87454792D01*
X158530106Y-87454788D01*
X158530109Y-87454786D01*
X158655049Y-87282819D01*
X158662497Y-87268203D01*
X158710473Y-87217408D01*
X158772981Y-87200500D01*
X161658481Y-87200500D01*
X161725520Y-87220185D01*
X161746162Y-87236819D01*
X163263181Y-88753838D01*
X163296666Y-88815161D01*
X163299500Y-88841519D01*
X163299500Y-92701452D01*
X163279815Y-92768491D01*
X163248385Y-92801770D01*
X163120213Y-92894890D01*
X162969894Y-93045209D01*
X162969890Y-93045214D01*
X162850318Y-93209793D01*
X162794989Y-93252459D01*
X162725375Y-93258438D01*
X162663580Y-93225833D01*
X162649682Y-93209793D01*
X162530109Y-93045214D01*
X162530105Y-93045209D01*
X162379786Y-92894890D01*
X162207820Y-92769951D01*
X162018414Y-92673444D01*
X162018413Y-92673443D01*
X162018412Y-92673443D01*
X161816243Y-92607754D01*
X161816241Y-92607753D01*
X161816240Y-92607753D01*
X161654957Y-92582208D01*
X161606287Y-92574500D01*
X161393713Y-92574500D01*
X161345042Y-92582208D01*
X161183760Y-92607753D01*
X160981585Y-92673444D01*
X160792179Y-92769951D01*
X160620213Y-92894890D01*
X160469890Y-93045213D01*
X160344951Y-93217179D01*
X160248444Y-93406585D01*
X160182753Y-93608760D01*
X160149500Y-93818713D01*
X160149500Y-94181286D01*
X160182753Y-94391239D01*
X160248444Y-94593414D01*
X160344951Y-94782820D01*
X160469890Y-94954786D01*
X160620213Y-95105109D01*
X160792179Y-95230048D01*
X160792181Y-95230049D01*
X160792184Y-95230051D01*
X160981588Y-95326557D01*
X161183757Y-95392246D01*
X161393713Y-95425500D01*
X161393714Y-95425500D01*
X161606286Y-95425500D01*
X161606287Y-95425500D01*
X161816243Y-95392246D01*
X162018412Y-95326557D01*
X162207816Y-95230051D01*
X162251617Y-95198228D01*
X162379786Y-95105109D01*
X162379788Y-95105106D01*
X162379792Y-95105104D01*
X162530104Y-94954792D01*
X162649683Y-94790204D01*
X162705011Y-94747540D01*
X162774624Y-94741561D01*
X162836420Y-94774166D01*
X162850313Y-94790199D01*
X162969892Y-94954786D01*
X162969896Y-94954792D01*
X163120211Y-95105107D01*
X163191200Y-95156682D01*
X163248385Y-95198229D01*
X163291051Y-95253558D01*
X163299500Y-95298547D01*
X163299500Y-100346452D01*
X163279815Y-100413491D01*
X163248385Y-100446770D01*
X163120213Y-100539890D01*
X162969894Y-100690209D01*
X162969890Y-100690214D01*
X162850318Y-100854793D01*
X162794989Y-100897459D01*
X162725375Y-100903438D01*
X162663580Y-100870833D01*
X162649682Y-100854793D01*
X162530109Y-100690214D01*
X162530105Y-100690209D01*
X162379786Y-100539890D01*
X162207820Y-100414951D01*
X162018414Y-100318444D01*
X162018413Y-100318443D01*
X162018412Y-100318443D01*
X161816243Y-100252754D01*
X161816241Y-100252753D01*
X161816240Y-100252753D01*
X161654957Y-100227208D01*
X161606287Y-100219500D01*
X161393713Y-100219500D01*
X161345042Y-100227208D01*
X161183760Y-100252753D01*
X160981585Y-100318444D01*
X160792179Y-100414951D01*
X160620213Y-100539890D01*
X160469890Y-100690213D01*
X160344951Y-100862179D01*
X160248444Y-101051585D01*
X160182753Y-101253760D01*
X160149500Y-101463713D01*
X160149500Y-101826286D01*
X160182753Y-102036239D01*
X160248444Y-102238414D01*
X160344951Y-102427820D01*
X160469890Y-102599786D01*
X160620213Y-102750109D01*
X160792179Y-102875048D01*
X160792181Y-102875049D01*
X160792184Y-102875051D01*
X160981588Y-102971557D01*
X161183757Y-103037246D01*
X161393713Y-103070500D01*
X161393714Y-103070500D01*
X161606286Y-103070500D01*
X161606287Y-103070500D01*
X161816243Y-103037246D01*
X162018412Y-102971557D01*
X162207816Y-102875051D01*
X162251617Y-102843228D01*
X162379786Y-102750109D01*
X162379788Y-102750106D01*
X162379792Y-102750104D01*
X162530104Y-102599792D01*
X162649683Y-102435204D01*
X162705011Y-102392540D01*
X162774624Y-102386561D01*
X162836420Y-102419166D01*
X162850313Y-102435199D01*
X162969892Y-102599786D01*
X162969896Y-102599792D01*
X163120211Y-102750107D01*
X163191200Y-102801682D01*
X163248385Y-102843229D01*
X163291051Y-102898558D01*
X163299500Y-102943547D01*
X163299500Y-107175500D01*
X163279815Y-107242539D01*
X163227011Y-107288294D01*
X163175500Y-107299500D01*
X151824500Y-107299500D01*
X151757461Y-107279815D01*
X151711706Y-107227011D01*
X151700500Y-107175500D01*
X151700500Y-102943547D01*
X151720185Y-102876508D01*
X151751614Y-102843230D01*
X151879792Y-102750104D01*
X152030104Y-102599792D01*
X152030106Y-102599788D01*
X152030109Y-102599786D01*
X152155048Y-102427820D01*
X152155047Y-102427820D01*
X152155051Y-102427816D01*
X152251557Y-102238412D01*
X152317246Y-102036243D01*
X152350500Y-101826287D01*
X152350500Y-101463713D01*
X152317246Y-101253757D01*
X152251557Y-101051588D01*
X152155051Y-100862184D01*
X152155049Y-100862181D01*
X152155048Y-100862179D01*
X152030109Y-100690213D01*
X151879786Y-100539890D01*
X151751615Y-100446770D01*
X151708949Y-100391441D01*
X151700500Y-100346452D01*
X151700500Y-95298547D01*
X151720185Y-95231508D01*
X151751614Y-95198230D01*
X151879792Y-95105104D01*
X152030104Y-94954792D01*
X152030106Y-94954788D01*
X152030109Y-94954786D01*
X152155048Y-94782820D01*
X152155047Y-94782820D01*
X152155051Y-94782816D01*
X152251557Y-94593412D01*
X152317246Y-94391243D01*
X152350500Y-94181287D01*
X152350500Y-93818713D01*
X152317246Y-93608757D01*
X152251557Y-93406588D01*
X152155051Y-93217184D01*
X152155049Y-93217181D01*
X152155048Y-93217179D01*
X152030109Y-93045213D01*
X151879786Y-92894890D01*
X151707820Y-92769951D01*
X151518414Y-92673444D01*
X151518413Y-92673443D01*
X151518412Y-92673443D01*
X151316243Y-92607754D01*
X151316241Y-92607753D01*
X151316240Y-92607753D01*
X151154957Y-92582208D01*
X151106287Y-92574500D01*
X150893713Y-92574500D01*
X150845042Y-92582208D01*
X150683760Y-92607753D01*
X150481585Y-92673444D01*
X150292179Y-92769951D01*
X150120213Y-92894890D01*
X149969894Y-93045209D01*
X149969890Y-93045214D01*
X149850318Y-93209793D01*
X149794989Y-93252459D01*
X149725375Y-93258438D01*
X149663580Y-93225833D01*
X149649682Y-93209793D01*
X149530109Y-93045214D01*
X149530105Y-93045209D01*
X149379786Y-92894890D01*
X149207820Y-92769951D01*
X149018414Y-92673444D01*
X149018413Y-92673443D01*
X149018412Y-92673443D01*
X148816243Y-92607754D01*
X148816241Y-92607753D01*
X148816240Y-92607753D01*
X148654957Y-92582208D01*
X148606287Y-92574500D01*
X148393713Y-92574500D01*
X148345042Y-92582208D01*
X148183760Y-92607753D01*
X147981585Y-92673444D01*
X147792179Y-92769951D01*
X147620213Y-92894890D01*
X147469890Y-93045213D01*
X147344951Y-93217179D01*
X147248444Y-93406585D01*
X147182753Y-93608760D01*
X147149500Y-93818713D01*
X147149500Y-94181286D01*
X147182753Y-94391239D01*
X147248444Y-94593414D01*
X147344951Y-94782820D01*
X147469890Y-94954786D01*
X147620213Y-95105109D01*
X147792179Y-95230048D01*
X147792181Y-95230049D01*
X147792184Y-95230051D01*
X147981588Y-95326557D01*
X148183757Y-95392246D01*
X148393713Y-95425500D01*
X148393714Y-95425500D01*
X148606286Y-95425500D01*
X148606287Y-95425500D01*
X148816243Y-95392246D01*
X149018412Y-95326557D01*
X149207816Y-95230051D01*
X149251617Y-95198228D01*
X149379786Y-95105109D01*
X149379788Y-95105106D01*
X149379792Y-95105104D01*
X149530104Y-94954792D01*
X149649683Y-94790204D01*
X149705011Y-94747540D01*
X149774624Y-94741561D01*
X149836420Y-94774166D01*
X149850313Y-94790199D01*
X149969892Y-94954786D01*
X149969896Y-94954792D01*
X150120211Y-95105107D01*
X150191200Y-95156682D01*
X150248385Y-95198229D01*
X150291051Y-95253558D01*
X150299500Y-95298547D01*
X150299500Y-100346452D01*
X150279815Y-100413491D01*
X150248385Y-100446770D01*
X150120213Y-100539890D01*
X149969894Y-100690209D01*
X149969890Y-100690214D01*
X149850318Y-100854793D01*
X149794989Y-100897459D01*
X149725375Y-100903438D01*
X149663580Y-100870833D01*
X149649682Y-100854793D01*
X149530109Y-100690214D01*
X149530105Y-100690209D01*
X149379786Y-100539890D01*
X149207820Y-100414951D01*
X149018414Y-100318444D01*
X149018413Y-100318443D01*
X149018412Y-100318443D01*
X148816243Y-100252754D01*
X148816241Y-100252753D01*
X148816240Y-100252753D01*
X148654957Y-100227208D01*
X148606287Y-100219500D01*
X148393713Y-100219500D01*
X148345042Y-100227208D01*
X148183760Y-100252753D01*
X147981585Y-100318444D01*
X147792179Y-100414951D01*
X147620213Y-100539890D01*
X147469890Y-100690213D01*
X147344951Y-100862179D01*
X147248444Y-101051585D01*
X147182753Y-101253760D01*
X147149500Y-101463713D01*
X147149500Y-101826286D01*
X147182753Y-102036239D01*
X147248444Y-102238414D01*
X147344951Y-102427820D01*
X147469890Y-102599786D01*
X147620213Y-102750109D01*
X147792179Y-102875048D01*
X147792181Y-102875049D01*
X147792184Y-102875051D01*
X147981588Y-102971557D01*
X148183757Y-103037246D01*
X148393713Y-103070500D01*
X148393714Y-103070500D01*
X148606286Y-103070500D01*
X148606287Y-103070500D01*
X148816243Y-103037246D01*
X149018412Y-102971557D01*
X149207816Y-102875051D01*
X149251617Y-102843228D01*
X149379786Y-102750109D01*
X149379788Y-102750106D01*
X149379792Y-102750104D01*
X149530104Y-102599792D01*
X149649683Y-102435204D01*
X149705011Y-102392540D01*
X149774624Y-102386561D01*
X149836420Y-102419166D01*
X149850313Y-102435199D01*
X149969892Y-102599786D01*
X149969896Y-102599792D01*
X150120211Y-102750107D01*
X150191200Y-102801682D01*
X150248385Y-102843229D01*
X150291051Y-102898558D01*
X150299500Y-102943547D01*
X150299500Y-107175500D01*
X150279815Y-107242539D01*
X150227011Y-107288294D01*
X150175500Y-107299500D01*
X141841519Y-107299500D01*
X141774480Y-107279815D01*
X141753838Y-107263181D01*
X140236819Y-105746162D01*
X140203334Y-105684839D01*
X140200500Y-105658481D01*
X140200500Y-102943547D01*
X140220185Y-102876508D01*
X140251614Y-102843230D01*
X140379792Y-102750104D01*
X140530104Y-102599792D01*
X140530106Y-102599788D01*
X140530109Y-102599786D01*
X140655048Y-102427820D01*
X140655047Y-102427820D01*
X140655051Y-102427816D01*
X140751557Y-102238412D01*
X140817246Y-102036243D01*
X140850500Y-101826287D01*
X140850500Y-101463713D01*
X140817246Y-101253757D01*
X140751557Y-101051588D01*
X140655051Y-100862184D01*
X140655049Y-100862181D01*
X140655048Y-100862179D01*
X140530109Y-100690213D01*
X140379786Y-100539890D01*
X140251615Y-100446770D01*
X140208949Y-100391441D01*
X140200500Y-100346452D01*
X140200500Y-95298547D01*
X140220185Y-95231508D01*
X140251614Y-95198230D01*
X140379792Y-95105104D01*
X140530104Y-94954792D01*
X140530106Y-94954788D01*
X140530109Y-94954786D01*
X140655048Y-94782820D01*
X140655047Y-94782820D01*
X140655051Y-94782816D01*
X140751557Y-94593412D01*
X140817246Y-94391243D01*
X140850500Y-94181287D01*
X140850500Y-93818713D01*
X140817246Y-93608757D01*
X140751557Y-93406588D01*
X140655051Y-93217184D01*
X140655049Y-93217181D01*
X140655048Y-93217179D01*
X140530109Y-93045213D01*
X140379786Y-92894890D01*
X140251615Y-92801770D01*
X140208949Y-92746441D01*
X140200500Y-92701452D01*
X140200500Y-87943547D01*
X140220185Y-87876508D01*
X140251614Y-87843230D01*
X140379792Y-87750104D01*
X140530104Y-87599792D01*
X140530106Y-87599788D01*
X140530109Y-87599786D01*
X140655048Y-87427820D01*
X140655047Y-87427820D01*
X140655051Y-87427816D01*
X140751557Y-87238412D01*
X140817246Y-87036243D01*
X140850500Y-86826287D01*
X140850500Y-86463713D01*
X140817246Y-86253757D01*
X140751557Y-86051588D01*
X140655051Y-85862184D01*
X140655049Y-85862181D01*
X140655048Y-85862179D01*
X140530109Y-85690213D01*
X140379786Y-85539890D01*
X140207820Y-85414951D01*
X140018414Y-85318444D01*
X140018413Y-85318443D01*
X140018412Y-85318443D01*
X139816243Y-85252754D01*
X139816241Y-85252753D01*
X139816240Y-85252753D01*
X139654957Y-85227208D01*
X139606287Y-85219500D01*
X139393713Y-85219500D01*
X139345042Y-85227208D01*
X139183760Y-85252753D01*
X138981585Y-85318444D01*
X138792179Y-85414951D01*
X138620213Y-85539890D01*
X138469894Y-85690209D01*
X138469890Y-85690214D01*
X138350318Y-85854793D01*
X138294989Y-85897459D01*
X138225375Y-85903438D01*
X138163580Y-85870833D01*
X138149682Y-85854793D01*
X138030109Y-85690214D01*
X138030105Y-85690209D01*
X137879786Y-85539890D01*
X137707820Y-85414951D01*
X137518414Y-85318444D01*
X137518413Y-85318443D01*
X137518412Y-85318443D01*
X137316243Y-85252754D01*
X137316241Y-85252753D01*
X137316240Y-85252753D01*
X137154957Y-85227208D01*
X137106287Y-85219500D01*
X136893713Y-85219500D01*
X136845042Y-85227208D01*
X136683760Y-85252753D01*
X136481585Y-85318444D01*
X136292179Y-85414951D01*
X136120213Y-85539890D01*
X135969890Y-85690213D01*
X135844951Y-85862179D01*
X135748444Y-86051585D01*
X135682753Y-86253760D01*
X135672466Y-86318713D01*
X135649500Y-86463713D01*
X130500500Y-86463713D01*
X130500500Y-78852486D01*
X131749500Y-78852486D01*
X131749500Y-79147513D01*
X131768482Y-79291690D01*
X131788007Y-79439993D01*
X131788008Y-79439995D01*
X131864361Y-79724951D01*
X131864364Y-79724961D01*
X131977254Y-79997500D01*
X131977258Y-79997510D01*
X132124761Y-80252993D01*
X132304352Y-80487040D01*
X132304358Y-80487047D01*
X132512952Y-80695641D01*
X132512959Y-80695647D01*
X132747006Y-80875238D01*
X133002489Y-81022741D01*
X133002490Y-81022741D01*
X133002493Y-81022743D01*
X133275048Y-81135639D01*
X133560007Y-81211993D01*
X133852494Y-81250500D01*
X133852501Y-81250500D01*
X134147499Y-81250500D01*
X134147506Y-81250500D01*
X134439993Y-81211993D01*
X134724952Y-81135639D01*
X134997507Y-81022743D01*
X135252994Y-80875238D01*
X135487042Y-80695646D01*
X135695646Y-80487042D01*
X135875238Y-80252994D01*
X136022743Y-79997507D01*
X136135639Y-79724952D01*
X136211993Y-79439993D01*
X136250500Y-79147506D01*
X136250500Y-78852494D01*
X136250499Y-78852486D01*
X173749500Y-78852486D01*
X173749500Y-79147513D01*
X173768482Y-79291690D01*
X173788007Y-79439993D01*
X173788008Y-79439995D01*
X173864361Y-79724951D01*
X173864364Y-79724961D01*
X173977254Y-79997500D01*
X173977258Y-79997510D01*
X174124761Y-80252993D01*
X174304352Y-80487040D01*
X174304358Y-80487047D01*
X174512952Y-80695641D01*
X174512959Y-80695647D01*
X174747006Y-80875238D01*
X175002489Y-81022741D01*
X175002490Y-81022741D01*
X175002493Y-81022743D01*
X175275048Y-81135639D01*
X175560007Y-81211993D01*
X175852494Y-81250500D01*
X175852501Y-81250500D01*
X176147499Y-81250500D01*
X176147506Y-81250500D01*
X176439993Y-81211993D01*
X176724952Y-81135639D01*
X176997507Y-81022743D01*
X177252994Y-80875238D01*
X177487042Y-80695646D01*
X177695646Y-80487042D01*
X177875238Y-80252994D01*
X178022743Y-79997507D01*
X178135639Y-79724952D01*
X178211993Y-79439993D01*
X178250500Y-79147506D01*
X178250500Y-78852494D01*
X178211993Y-78560007D01*
X178135639Y-78275048D01*
X178022743Y-78002493D01*
X177875238Y-77747006D01*
X177695646Y-77512958D01*
X177695641Y-77512952D01*
X177487047Y-77304358D01*
X177487040Y-77304352D01*
X177252993Y-77124761D01*
X176997510Y-76977258D01*
X176997500Y-76977254D01*
X176724961Y-76864364D01*
X176724954Y-76864362D01*
X176724952Y-76864361D01*
X176439993Y-76788007D01*
X176391113Y-76781571D01*
X176147513Y-76749500D01*
X176147506Y-76749500D01*
X175852494Y-76749500D01*
X175852486Y-76749500D01*
X175574849Y-76786053D01*
X175560007Y-76788007D01*
X175534282Y-76794900D01*
X175275048Y-76864361D01*
X175275038Y-76864364D01*
X175002499Y-76977254D01*
X175002489Y-76977258D01*
X174747006Y-77124761D01*
X174512959Y-77304352D01*
X174512952Y-77304358D01*
X174304358Y-77512952D01*
X174304352Y-77512959D01*
X174124761Y-77747006D01*
X173977258Y-78002489D01*
X173977254Y-78002499D01*
X173864364Y-78275038D01*
X173864361Y-78275048D01*
X173788008Y-78560004D01*
X173788006Y-78560015D01*
X173749500Y-78852486D01*
X136250499Y-78852486D01*
X136211993Y-78560007D01*
X136135639Y-78275048D01*
X136022743Y-78002493D01*
X135875238Y-77747006D01*
X135695646Y-77512958D01*
X135695641Y-77512952D01*
X135487047Y-77304358D01*
X135487040Y-77304352D01*
X135252993Y-77124761D01*
X134997510Y-76977258D01*
X134997500Y-76977254D01*
X134724961Y-76864364D01*
X134724954Y-76864362D01*
X134724952Y-76864361D01*
X134439993Y-76788007D01*
X134391113Y-76781571D01*
X134147513Y-76749500D01*
X134147506Y-76749500D01*
X133852494Y-76749500D01*
X133852486Y-76749500D01*
X133574849Y-76786053D01*
X133560007Y-76788007D01*
X133534282Y-76794900D01*
X133275048Y-76864361D01*
X133275038Y-76864364D01*
X133002499Y-76977254D01*
X133002489Y-76977258D01*
X132747006Y-77124761D01*
X132512959Y-77304352D01*
X132512952Y-77304358D01*
X132304358Y-77512952D01*
X132304352Y-77512959D01*
X132124761Y-77747006D01*
X131977258Y-78002489D01*
X131977254Y-78002499D01*
X131864364Y-78275038D01*
X131864361Y-78275048D01*
X131788008Y-78560004D01*
X131788006Y-78560015D01*
X131749500Y-78852486D01*
X130500500Y-78852486D01*
X130500500Y-76950864D01*
X130500816Y-76942019D01*
X130503056Y-76910696D01*
X130511337Y-76794895D01*
X130513855Y-76777387D01*
X130555681Y-76585120D01*
X130560658Y-76568169D01*
X130629430Y-76383783D01*
X130636765Y-76367721D01*
X130731070Y-76195013D01*
X130740630Y-76180140D01*
X130858545Y-76022623D01*
X130870119Y-76009266D01*
X131009262Y-75870123D01*
X131022616Y-75858551D01*
X131180151Y-75740621D01*
X131195012Y-75731071D01*
X131367721Y-75636765D01*
X131383783Y-75629430D01*
X131568169Y-75560658D01*
X131585120Y-75555681D01*
X131777389Y-75513854D01*
X131794895Y-75511337D01*
X131942019Y-75500815D01*
X131950864Y-75500500D01*
X178049136Y-75500500D01*
X178057980Y-75500815D01*
G37*
%TD.AperFunction*%
%TD*%
M02*
