%TF.GenerationSoftware,KiCad,Pcbnew,10.0.0*%
%TF.CreationDate,2026-05-28T14:34:12+12:00*%
%TF.ProjectId,robot_pdb,726f626f-745f-4706-9462-2e6b69636164,rev?*%
%TF.SameCoordinates,Original*%
%TF.FileFunction,Copper,L1,Top*%
%TF.FilePolarity,Positive*%
%FSLAX46Y46*%
G04 Gerber Fmt 4.6, Leading zero omitted, Abs format (unit mm)*
G04 Created by KiCad (PCBNEW 10.0.0) date 2026-05-28 14:34:12*
%MOMM*%
%LPD*%
G01*
G04 APERTURE LIST*
G04 Aperture macros list*
%AMRoundRect*
0 Rectangle with rounded corners*
0 $1 Rounding radius*
0 $2 $3 $4 $5 $6 $7 $8 $9 X,Y pos of 4 corners*
0 Add a 4 corners polygon primitive as box body*
4,1,4,$2,$3,$4,$5,$6,$7,$8,$9,$2,$3,0*
0 Add four circle primitives for the rounded corners*
1,1,$1+$1,$2,$3*
1,1,$1+$1,$4,$5*
1,1,$1+$1,$6,$7*
1,1,$1+$1,$8,$9*
0 Add four rect primitives between the rounded corners*
20,1,$1+$1,$2,$3,$4,$5,0*
20,1,$1+$1,$4,$5,$6,$7,0*
20,1,$1+$1,$6,$7,$8,$9,0*
20,1,$1+$1,$8,$9,$2,$3,0*%
G04 Aperture macros list end*
%TA.AperFunction,ComponentPad*%
%ADD10RoundRect,0.250000X-0.600000X-0.675000X0.600000X-0.675000X0.600000X0.675000X-0.600000X0.675000X0*%
%TD*%
%TA.AperFunction,ComponentPad*%
%ADD11O,1.700000X1.850000*%
%TD*%
%TA.AperFunction,ComponentPad*%
%ADD12RoundRect,0.760000X-1.140000X-1.140000X1.140000X-1.140000X1.140000X1.140000X-1.140000X1.140000X0*%
%TD*%
%TA.AperFunction,ComponentPad*%
%ADD13C,3.800000*%
%TD*%
G04 APERTURE END LIST*
D10*
%TO.P,MR1,1*%
%TO.N,GND*%
X170500000Y-86500000D03*
D11*
%TO.P,MR1,2*%
%TO.N,VCC*%
X173000000Y-86500000D03*
%TO.P,MR1,3*%
%TO.N,N/C*%
X175500000Y-86500000D03*
%TD*%
D10*
%TO.P,ML4,1*%
%TO.N,GND*%
X134500000Y-101645000D03*
D11*
%TO.P,ML4,2*%
%TO.N,VCC*%
X137000000Y-101645000D03*
%TO.P,ML4,3*%
%TO.N,N/C*%
X139500000Y-101645000D03*
%TD*%
D10*
%TO.P,ML3,1*%
%TO.N,GND*%
X146000000Y-94000000D03*
D11*
%TO.P,ML3,2*%
%TO.N,VCC*%
X148500000Y-94000000D03*
%TO.P,ML3,3*%
%TO.N,N/C*%
X151000000Y-94000000D03*
%TD*%
D10*
%TO.P,MC,1*%
%TO.N,GND*%
X152500000Y-86500000D03*
D11*
%TO.P,MC,2*%
%TO.N,VCC*%
X155000000Y-86500000D03*
%TO.P,MC,3*%
%TO.N,N/C*%
X157500000Y-86500000D03*
%TD*%
D10*
%TO.P,MR3,1*%
%TO.N,GND*%
X170500000Y-94000000D03*
D11*
%TO.P,MR3,2*%
%TO.N,VCC*%
X173000000Y-94000000D03*
%TO.P,MR3,3*%
%TO.N,N/C*%
X175500000Y-94000000D03*
%TD*%
D10*
%TO.P,Motor Driver,1*%
%TO.N,GND*%
X161000000Y-114000000D03*
D11*
%TO.P,Motor Driver,2*%
%TO.N,VCC*%
X163500000Y-114000000D03*
%TO.P,Motor Driver,3*%
%TO.N,N/C*%
X166000000Y-114000000D03*
%TD*%
D10*
%TO.P,MR5_6_7,1*%
%TO.N,GND*%
X170500000Y-101645000D03*
D11*
%TO.P,MR5_6_7,2*%
%TO.N,VCC*%
X173000000Y-101645000D03*
%TO.P,MR5_6_7,3*%
%TO.N,N/C*%
X175500000Y-101645000D03*
%TD*%
D10*
%TO.P,ML1,1*%
%TO.N,GND*%
X134500000Y-86645000D03*
D11*
%TO.P,ML1,2*%
%TO.N,VCC*%
X137000000Y-86645000D03*
%TO.P,ML1,3*%
%TO.N,N/C*%
X139500000Y-86645000D03*
%TD*%
D10*
%TO.P,MR2,1*%
%TO.N,GND*%
X159000000Y-94000000D03*
D11*
%TO.P,MR2,2*%
%TO.N,VCC*%
X161500000Y-94000000D03*
%TO.P,MR2,3*%
%TO.N,N/C*%
X164000000Y-94000000D03*
%TD*%
D10*
%TO.P,MR4,1*%
%TO.N,GND*%
X159000000Y-101645000D03*
D11*
%TO.P,MR4,2*%
%TO.N,VCC*%
X161500000Y-101645000D03*
%TO.P,MR4,3*%
%TO.N,N/C*%
X164000000Y-101645000D03*
%TD*%
D12*
%TO.P,Power,1*%
%TO.N,GND*%
X144000000Y-113500000D03*
D13*
%TO.P,Power,2*%
%TO.N,VCC*%
X149000000Y-113500000D03*
%TD*%
D10*
%TO.P,ML5_6_7,1*%
%TO.N,GND*%
X146000000Y-101645000D03*
D11*
%TO.P,ML5_6_7,2*%
%TO.N,VCC*%
X148500000Y-101645000D03*
%TO.P,ML5_6_7,3*%
%TO.N,N/C*%
X151000000Y-101645000D03*
%TD*%
D10*
%TO.P,ML2,1*%
%TO.N,GND*%
X134500000Y-94000000D03*
D11*
%TO.P,ML2,2*%
%TO.N,VCC*%
X137000000Y-94000000D03*
%TO.P,ML2,3*%
%TO.N,N/C*%
X139500000Y-94000000D03*
%TD*%
%TA.AperFunction,Conductor*%
%TO.N,VCC*%
G36*
X178057980Y-75500815D02*
G01*
X178205101Y-75511337D01*
X178222611Y-75513855D01*
X178414868Y-75555678D01*
X178471516Y-75586611D01*
X178607801Y-75626628D01*
X178632286Y-75636770D01*
X178752228Y-75702263D01*
X178804977Y-75731066D01*
X178819860Y-75740631D01*
X178977368Y-75858540D01*
X178990739Y-75870126D01*
X179129868Y-76009255D01*
X179141454Y-76022625D01*
X179259367Y-76180138D01*
X179259369Y-76180140D01*
X179268932Y-76195021D01*
X179338227Y-76321926D01*
X179363225Y-76367705D01*
X179370575Y-76383799D01*
X179439336Y-76568156D01*
X179444320Y-76585131D01*
X179486143Y-76777387D01*
X179488661Y-76794898D01*
X179499184Y-76942018D01*
X179499500Y-76950865D01*
X179499500Y-118049133D01*
X179499184Y-118057980D01*
X179488661Y-118205100D01*
X179486143Y-118222611D01*
X179444320Y-118414867D01*
X179439336Y-118431842D01*
X179370575Y-118616199D01*
X179363225Y-118632293D01*
X179268934Y-118804974D01*
X179259369Y-118819858D01*
X179141454Y-118977373D01*
X179129868Y-118990743D01*
X178990739Y-119129872D01*
X178977368Y-119141458D01*
X178819860Y-119259367D01*
X178804977Y-119268932D01*
X178632293Y-119363225D01*
X178616199Y-119370575D01*
X178431842Y-119439336D01*
X178414867Y-119444320D01*
X178222611Y-119486143D01*
X178205100Y-119488661D01*
X178069134Y-119498386D01*
X178057979Y-119499184D01*
X178049134Y-119499500D01*
X131950866Y-119499500D01*
X131942020Y-119499184D01*
X131930000Y-119498324D01*
X131794898Y-119488661D01*
X131777387Y-119486143D01*
X131585131Y-119444320D01*
X131568156Y-119439336D01*
X131383795Y-119370573D01*
X131367710Y-119363227D01*
X131195023Y-119268933D01*
X131180140Y-119259369D01*
X131180137Y-119259367D01*
X131022625Y-119141454D01*
X131009255Y-119129868D01*
X130870126Y-118990739D01*
X130858540Y-118977368D01*
X130740631Y-118819860D01*
X130731066Y-118804977D01*
X130636768Y-118632282D01*
X130629428Y-118616210D01*
X130560659Y-118431833D01*
X130555680Y-118414874D01*
X130513855Y-118222611D01*
X130511337Y-118205098D01*
X130506369Y-118135635D01*
X130500816Y-118057979D01*
X130500500Y-118049134D01*
X130500500Y-115852486D01*
X131749500Y-115852486D01*
X131749500Y-116147513D01*
X131768482Y-116291690D01*
X131788007Y-116439993D01*
X131788008Y-116439995D01*
X131864361Y-116724951D01*
X131864364Y-116724961D01*
X131977254Y-116997500D01*
X131977258Y-116997510D01*
X132124761Y-117252993D01*
X132304352Y-117487040D01*
X132304358Y-117487047D01*
X132512952Y-117695641D01*
X132512959Y-117695647D01*
X132747006Y-117875238D01*
X133002489Y-118022741D01*
X133002490Y-118022741D01*
X133002493Y-118022743D01*
X133275048Y-118135639D01*
X133560007Y-118211993D01*
X133852494Y-118250500D01*
X133852501Y-118250500D01*
X134147499Y-118250500D01*
X134147506Y-118250500D01*
X134439993Y-118211993D01*
X134724952Y-118135639D01*
X134997507Y-118022743D01*
X135252994Y-117875238D01*
X135487042Y-117695646D01*
X135695646Y-117487042D01*
X135875238Y-117252994D01*
X136022743Y-116997507D01*
X136135639Y-116724952D01*
X136211993Y-116439993D01*
X136250500Y-116147506D01*
X136250500Y-115852494D01*
X136211993Y-115560007D01*
X136135639Y-115275048D01*
X136022743Y-115002493D01*
X136018032Y-114994334D01*
X135875238Y-114747006D01*
X135695647Y-114512959D01*
X135695641Y-114512952D01*
X135487047Y-114304358D01*
X135487040Y-114304352D01*
X135252993Y-114124761D01*
X134997510Y-113977258D01*
X134997500Y-113977254D01*
X134724961Y-113864364D01*
X134724954Y-113864362D01*
X134724952Y-113864361D01*
X134439993Y-113788007D01*
X134391113Y-113781571D01*
X134147513Y-113749500D01*
X134147506Y-113749500D01*
X133852494Y-113749500D01*
X133852486Y-113749500D01*
X133574085Y-113786153D01*
X133560007Y-113788007D01*
X133445410Y-113818713D01*
X133275048Y-113864361D01*
X133275038Y-113864364D01*
X133002499Y-113977254D01*
X133002489Y-113977258D01*
X132747006Y-114124761D01*
X132512959Y-114304352D01*
X132512952Y-114304358D01*
X132304358Y-114512952D01*
X132304352Y-114512959D01*
X132124761Y-114747006D01*
X131977258Y-115002489D01*
X131977254Y-115002499D01*
X131864364Y-115275038D01*
X131864361Y-115275048D01*
X131788008Y-115560004D01*
X131788006Y-115560015D01*
X131749500Y-115852486D01*
X130500500Y-115852486D01*
X130500500Y-112295260D01*
X141599500Y-112295260D01*
X141599500Y-114704739D01*
X141601096Y-114725016D01*
X141609185Y-114827799D01*
X141609987Y-114837982D01*
X141665426Y-115058002D01*
X141759258Y-115264579D01*
X141759263Y-115264589D01*
X141888473Y-115451090D01*
X142048909Y-115611526D01*
X142235410Y-115740736D01*
X142235420Y-115740741D01*
X142441997Y-115834573D01*
X142441998Y-115834573D01*
X142442000Y-115834574D01*
X142662017Y-115890013D01*
X142795264Y-115900500D01*
X142795270Y-115900500D01*
X145204730Y-115900500D01*
X145204736Y-115900500D01*
X145337983Y-115890013D01*
X145486914Y-115852486D01*
X173749500Y-115852486D01*
X173749500Y-116147513D01*
X173768482Y-116291690D01*
X173788007Y-116439993D01*
X173788008Y-116439995D01*
X173864361Y-116724951D01*
X173864364Y-116724961D01*
X173977254Y-116997500D01*
X173977258Y-116997510D01*
X174124761Y-117252993D01*
X174304352Y-117487040D01*
X174304358Y-117487047D01*
X174512952Y-117695641D01*
X174512959Y-117695647D01*
X174747006Y-117875238D01*
X175002489Y-118022741D01*
X175002490Y-118022741D01*
X175002493Y-118022743D01*
X175275048Y-118135639D01*
X175560007Y-118211993D01*
X175852494Y-118250500D01*
X175852501Y-118250500D01*
X176147499Y-118250500D01*
X176147506Y-118250500D01*
X176439993Y-118211993D01*
X176724952Y-118135639D01*
X176997507Y-118022743D01*
X177252994Y-117875238D01*
X177487042Y-117695646D01*
X177695646Y-117487042D01*
X177875238Y-117252994D01*
X178022743Y-116997507D01*
X178135639Y-116724952D01*
X178211993Y-116439993D01*
X178250500Y-116147506D01*
X178250500Y-115852494D01*
X178211993Y-115560007D01*
X178135639Y-115275048D01*
X178022743Y-115002493D01*
X178018032Y-114994334D01*
X177875238Y-114747006D01*
X177695647Y-114512959D01*
X177695641Y-114512952D01*
X177487047Y-114304358D01*
X177487040Y-114304352D01*
X177252993Y-114124761D01*
X176997510Y-113977258D01*
X176997500Y-113977254D01*
X176724961Y-113864364D01*
X176724954Y-113864362D01*
X176724952Y-113864361D01*
X176439993Y-113788007D01*
X176391113Y-113781571D01*
X176147513Y-113749500D01*
X176147506Y-113749500D01*
X175852494Y-113749500D01*
X175852486Y-113749500D01*
X175574085Y-113786153D01*
X175560007Y-113788007D01*
X175445410Y-113818713D01*
X175275048Y-113864361D01*
X175275038Y-113864364D01*
X175002499Y-113977254D01*
X175002489Y-113977258D01*
X174747006Y-114124761D01*
X174512959Y-114304352D01*
X174512952Y-114304358D01*
X174304358Y-114512952D01*
X174304352Y-114512959D01*
X174124761Y-114747006D01*
X173977258Y-115002489D01*
X173977254Y-115002499D01*
X173864364Y-115275038D01*
X173864361Y-115275048D01*
X173788008Y-115560004D01*
X173788006Y-115560015D01*
X173749500Y-115852486D01*
X145486914Y-115852486D01*
X145558000Y-115834574D01*
X145764582Y-115740740D01*
X145951089Y-115611527D01*
X146111527Y-115451089D01*
X146183545Y-115347138D01*
X146240736Y-115264589D01*
X146240741Y-115264579D01*
X146256425Y-115230051D01*
X146334574Y-115058000D01*
X146390013Y-114837983D01*
X146400500Y-114704736D01*
X146400500Y-113274983D01*
X159649500Y-113274983D01*
X159649500Y-114725001D01*
X159649501Y-114725018D01*
X159660000Y-114827796D01*
X159660001Y-114827799D01*
X159702081Y-114954786D01*
X159715186Y-114994334D01*
X159807288Y-115143656D01*
X159931344Y-115267712D01*
X160080666Y-115359814D01*
X160247203Y-115414999D01*
X160349991Y-115425500D01*
X161650008Y-115425499D01*
X161752797Y-115414999D01*
X161919334Y-115359814D01*
X162068656Y-115267712D01*
X162192712Y-115143656D01*
X162284814Y-114994334D01*
X162339999Y-114827797D01*
X162350500Y-114725009D01*
X162350499Y-113818713D01*
X164649500Y-113818713D01*
X164649500Y-114181286D01*
X164682753Y-114391239D01*
X164748444Y-114593414D01*
X164844951Y-114782820D01*
X164969890Y-114954786D01*
X165120213Y-115105109D01*
X165292179Y-115230048D01*
X165292181Y-115230049D01*
X165292184Y-115230051D01*
X165481588Y-115326557D01*
X165683757Y-115392246D01*
X165893713Y-115425500D01*
X165893714Y-115425500D01*
X166106286Y-115425500D01*
X166106287Y-115425500D01*
X166316243Y-115392246D01*
X166518412Y-115326557D01*
X166707816Y-115230051D01*
X166764986Y-115188515D01*
X166879786Y-115105109D01*
X166879788Y-115105106D01*
X166879792Y-115105104D01*
X167030104Y-114954792D01*
X167030106Y-114954788D01*
X167030109Y-114954786D01*
X167155048Y-114782820D01*
X167155047Y-114782820D01*
X167155051Y-114782816D01*
X167251557Y-114593412D01*
X167317246Y-114391243D01*
X167350500Y-114181287D01*
X167350500Y-113818713D01*
X167317246Y-113608757D01*
X167251557Y-113406588D01*
X167155051Y-113217184D01*
X167155049Y-113217181D01*
X167155048Y-113217179D01*
X167030109Y-113045213D01*
X166879786Y-112894890D01*
X166707820Y-112769951D01*
X166518414Y-112673444D01*
X166518413Y-112673443D01*
X166518412Y-112673443D01*
X166316243Y-112607754D01*
X166316241Y-112607753D01*
X166316240Y-112607753D01*
X166154957Y-112582208D01*
X166106287Y-112574500D01*
X165893713Y-112574500D01*
X165845042Y-112582208D01*
X165683760Y-112607753D01*
X165481585Y-112673444D01*
X165292179Y-112769951D01*
X165120213Y-112894890D01*
X164969890Y-113045213D01*
X164844951Y-113217179D01*
X164748444Y-113406585D01*
X164682753Y-113608760D01*
X164649500Y-113818713D01*
X162350499Y-113818713D01*
X162350499Y-113274992D01*
X162339999Y-113172203D01*
X162284814Y-113005666D01*
X162192712Y-112856344D01*
X162068656Y-112732288D01*
X161919334Y-112640186D01*
X161752797Y-112585001D01*
X161752795Y-112585000D01*
X161650010Y-112574500D01*
X160349998Y-112574500D01*
X160349981Y-112574501D01*
X160247203Y-112585000D01*
X160247200Y-112585001D01*
X160080668Y-112640185D01*
X160080663Y-112640187D01*
X159931342Y-112732289D01*
X159807289Y-112856342D01*
X159715187Y-113005663D01*
X159715186Y-113005666D01*
X159660001Y-113172203D01*
X159660001Y-113172204D01*
X159660000Y-113172204D01*
X159649500Y-113274983D01*
X146400500Y-113274983D01*
X146400500Y-112295264D01*
X146390013Y-112162017D01*
X146334574Y-111942000D01*
X146240740Y-111735418D01*
X146240736Y-111735410D01*
X146111526Y-111548909D01*
X145951090Y-111388473D01*
X145764589Y-111259263D01*
X145764579Y-111259258D01*
X145558002Y-111165426D01*
X145411322Y-111128466D01*
X145337983Y-111109987D01*
X145304671Y-111107365D01*
X145204739Y-111099500D01*
X145204736Y-111099500D01*
X142795264Y-111099500D01*
X142795260Y-111099500D01*
X142662017Y-111109987D01*
X142441997Y-111165426D01*
X142235420Y-111259258D01*
X142235410Y-111259263D01*
X142048909Y-111388473D01*
X141888473Y-111548909D01*
X141759263Y-111735410D01*
X141759258Y-111735420D01*
X141665426Y-111941997D01*
X141609987Y-112162017D01*
X141599500Y-112295260D01*
X130500500Y-112295260D01*
X130500500Y-100919983D01*
X133149500Y-100919983D01*
X133149500Y-102370001D01*
X133149501Y-102370018D01*
X133160000Y-102472796D01*
X133160001Y-102472799D01*
X133202081Y-102599786D01*
X133215186Y-102639334D01*
X133307288Y-102788656D01*
X133431344Y-102912712D01*
X133580666Y-103004814D01*
X133747203Y-103059999D01*
X133849991Y-103070500D01*
X135150008Y-103070499D01*
X135252797Y-103059999D01*
X135419334Y-103004814D01*
X135568656Y-102912712D01*
X135692712Y-102788656D01*
X135784814Y-102639334D01*
X135839999Y-102472797D01*
X135850500Y-102370009D01*
X135850499Y-101463713D01*
X138149500Y-101463713D01*
X138149500Y-101826286D01*
X138182753Y-102036239D01*
X138248444Y-102238414D01*
X138344951Y-102427820D01*
X138469890Y-102599786D01*
X138620213Y-102750109D01*
X138792179Y-102875048D01*
X138792181Y-102875049D01*
X138792184Y-102875051D01*
X138981588Y-102971557D01*
X139183757Y-103037246D01*
X139393713Y-103070500D01*
X139393714Y-103070500D01*
X139606286Y-103070500D01*
X139606287Y-103070500D01*
X139816243Y-103037246D01*
X140018412Y-102971557D01*
X140207816Y-102875051D01*
X140229789Y-102859086D01*
X140379786Y-102750109D01*
X140379788Y-102750106D01*
X140379792Y-102750104D01*
X140530104Y-102599792D01*
X140530106Y-102599788D01*
X140530109Y-102599786D01*
X140655048Y-102427820D01*
X140655047Y-102427820D01*
X140655051Y-102427816D01*
X140751557Y-102238412D01*
X140817246Y-102036243D01*
X140850500Y-101826287D01*
X140850500Y-101463713D01*
X140817246Y-101253757D01*
X140751557Y-101051588D01*
X140684501Y-100919983D01*
X144649500Y-100919983D01*
X144649500Y-102370001D01*
X144649501Y-102370018D01*
X144660000Y-102472796D01*
X144660001Y-102472799D01*
X144702081Y-102599786D01*
X144715186Y-102639334D01*
X144807288Y-102788656D01*
X144931344Y-102912712D01*
X145080666Y-103004814D01*
X145247203Y-103059999D01*
X145349991Y-103070500D01*
X146650008Y-103070499D01*
X146752797Y-103059999D01*
X146919334Y-103004814D01*
X147068656Y-102912712D01*
X147192712Y-102788656D01*
X147284814Y-102639334D01*
X147339999Y-102472797D01*
X147350500Y-102370009D01*
X147350499Y-101463713D01*
X149649500Y-101463713D01*
X149649500Y-101826286D01*
X149682753Y-102036239D01*
X149748444Y-102238414D01*
X149844951Y-102427820D01*
X149969890Y-102599786D01*
X150120213Y-102750109D01*
X150292179Y-102875048D01*
X150292181Y-102875049D01*
X150292184Y-102875051D01*
X150481588Y-102971557D01*
X150683757Y-103037246D01*
X150893713Y-103070500D01*
X150893714Y-103070500D01*
X151106286Y-103070500D01*
X151106287Y-103070500D01*
X151316243Y-103037246D01*
X151518412Y-102971557D01*
X151707816Y-102875051D01*
X151729789Y-102859086D01*
X151879786Y-102750109D01*
X151879788Y-102750106D01*
X151879792Y-102750104D01*
X152030104Y-102599792D01*
X152030106Y-102599788D01*
X152030109Y-102599786D01*
X152155048Y-102427820D01*
X152155047Y-102427820D01*
X152155051Y-102427816D01*
X152251557Y-102238412D01*
X152317246Y-102036243D01*
X152350500Y-101826287D01*
X152350500Y-101463713D01*
X152317246Y-101253757D01*
X152251557Y-101051588D01*
X152184501Y-100919983D01*
X157649500Y-100919983D01*
X157649500Y-102370001D01*
X157649501Y-102370018D01*
X157660000Y-102472796D01*
X157660001Y-102472799D01*
X157702081Y-102599786D01*
X157715186Y-102639334D01*
X157807288Y-102788656D01*
X157931344Y-102912712D01*
X158080666Y-103004814D01*
X158247203Y-103059999D01*
X158349991Y-103070500D01*
X159650008Y-103070499D01*
X159752797Y-103059999D01*
X159919334Y-103004814D01*
X160068656Y-102912712D01*
X160192712Y-102788656D01*
X160284814Y-102639334D01*
X160339999Y-102472797D01*
X160350500Y-102370009D01*
X160350499Y-101463713D01*
X162649500Y-101463713D01*
X162649500Y-101826286D01*
X162682753Y-102036239D01*
X162748444Y-102238414D01*
X162844951Y-102427820D01*
X162969890Y-102599786D01*
X163120213Y-102750109D01*
X163292179Y-102875048D01*
X163292181Y-102875049D01*
X163292184Y-102875051D01*
X163481588Y-102971557D01*
X163683757Y-103037246D01*
X163893713Y-103070500D01*
X163893714Y-103070500D01*
X164106286Y-103070500D01*
X164106287Y-103070500D01*
X164316243Y-103037246D01*
X164518412Y-102971557D01*
X164707816Y-102875051D01*
X164729789Y-102859086D01*
X164879786Y-102750109D01*
X164879788Y-102750106D01*
X164879792Y-102750104D01*
X165030104Y-102599792D01*
X165030106Y-102599788D01*
X165030109Y-102599786D01*
X165155048Y-102427820D01*
X165155047Y-102427820D01*
X165155051Y-102427816D01*
X165251557Y-102238412D01*
X165317246Y-102036243D01*
X165350500Y-101826287D01*
X165350500Y-101463713D01*
X165317246Y-101253757D01*
X165251557Y-101051588D01*
X165184501Y-100919983D01*
X169149500Y-100919983D01*
X169149500Y-102370001D01*
X169149501Y-102370018D01*
X169160000Y-102472796D01*
X169160001Y-102472799D01*
X169202081Y-102599786D01*
X169215186Y-102639334D01*
X169307288Y-102788656D01*
X169431344Y-102912712D01*
X169580666Y-103004814D01*
X169747203Y-103059999D01*
X169849991Y-103070500D01*
X171150008Y-103070499D01*
X171252797Y-103059999D01*
X171419334Y-103004814D01*
X171568656Y-102912712D01*
X171692712Y-102788656D01*
X171784814Y-102639334D01*
X171839999Y-102472797D01*
X171850500Y-102370009D01*
X171850499Y-101463713D01*
X174149500Y-101463713D01*
X174149500Y-101826286D01*
X174182753Y-102036239D01*
X174248444Y-102238414D01*
X174344951Y-102427820D01*
X174469890Y-102599786D01*
X174620213Y-102750109D01*
X174792179Y-102875048D01*
X174792181Y-102875049D01*
X174792184Y-102875051D01*
X174981588Y-102971557D01*
X175183757Y-103037246D01*
X175393713Y-103070500D01*
X175393714Y-103070500D01*
X175606286Y-103070500D01*
X175606287Y-103070500D01*
X175816243Y-103037246D01*
X176018412Y-102971557D01*
X176207816Y-102875051D01*
X176229789Y-102859086D01*
X176379786Y-102750109D01*
X176379788Y-102750106D01*
X176379792Y-102750104D01*
X176530104Y-102599792D01*
X176530106Y-102599788D01*
X176530109Y-102599786D01*
X176655048Y-102427820D01*
X176655047Y-102427820D01*
X176655051Y-102427816D01*
X176751557Y-102238412D01*
X176817246Y-102036243D01*
X176850500Y-101826287D01*
X176850500Y-101463713D01*
X176817246Y-101253757D01*
X176751557Y-101051588D01*
X176655051Y-100862184D01*
X176655049Y-100862181D01*
X176655048Y-100862179D01*
X176530109Y-100690213D01*
X176379786Y-100539890D01*
X176207820Y-100414951D01*
X176018414Y-100318444D01*
X176018413Y-100318443D01*
X176018412Y-100318443D01*
X175816243Y-100252754D01*
X175816241Y-100252753D01*
X175816240Y-100252753D01*
X175654957Y-100227208D01*
X175606287Y-100219500D01*
X175393713Y-100219500D01*
X175345042Y-100227208D01*
X175183760Y-100252753D01*
X174981585Y-100318444D01*
X174792179Y-100414951D01*
X174620213Y-100539890D01*
X174469890Y-100690213D01*
X174344951Y-100862179D01*
X174248444Y-101051585D01*
X174182753Y-101253760D01*
X174149500Y-101463713D01*
X171850499Y-101463713D01*
X171850499Y-100919992D01*
X171839999Y-100817203D01*
X171784814Y-100650666D01*
X171692712Y-100501344D01*
X171568656Y-100377288D01*
X171419334Y-100285186D01*
X171252797Y-100230001D01*
X171252795Y-100230000D01*
X171150010Y-100219500D01*
X169849998Y-100219500D01*
X169849981Y-100219501D01*
X169747203Y-100230000D01*
X169747200Y-100230001D01*
X169580668Y-100285185D01*
X169580663Y-100285187D01*
X169431342Y-100377289D01*
X169307289Y-100501342D01*
X169215187Y-100650663D01*
X169215186Y-100650666D01*
X169160001Y-100817203D01*
X169160001Y-100817204D01*
X169160000Y-100817204D01*
X169149500Y-100919983D01*
X165184501Y-100919983D01*
X165155051Y-100862184D01*
X165155049Y-100862181D01*
X165155048Y-100862179D01*
X165030109Y-100690213D01*
X164879786Y-100539890D01*
X164707820Y-100414951D01*
X164518414Y-100318444D01*
X164518413Y-100318443D01*
X164518412Y-100318443D01*
X164316243Y-100252754D01*
X164316241Y-100252753D01*
X164316240Y-100252753D01*
X164154957Y-100227208D01*
X164106287Y-100219500D01*
X163893713Y-100219500D01*
X163845042Y-100227208D01*
X163683760Y-100252753D01*
X163481585Y-100318444D01*
X163292179Y-100414951D01*
X163120213Y-100539890D01*
X162969890Y-100690213D01*
X162844951Y-100862179D01*
X162748444Y-101051585D01*
X162682753Y-101253760D01*
X162649500Y-101463713D01*
X160350499Y-101463713D01*
X160350499Y-100919992D01*
X160339999Y-100817203D01*
X160284814Y-100650666D01*
X160192712Y-100501344D01*
X160068656Y-100377288D01*
X159919334Y-100285186D01*
X159752797Y-100230001D01*
X159752795Y-100230000D01*
X159650010Y-100219500D01*
X158349998Y-100219500D01*
X158349981Y-100219501D01*
X158247203Y-100230000D01*
X158247200Y-100230001D01*
X158080668Y-100285185D01*
X158080663Y-100285187D01*
X157931342Y-100377289D01*
X157807289Y-100501342D01*
X157715187Y-100650663D01*
X157715186Y-100650666D01*
X157660001Y-100817203D01*
X157660001Y-100817204D01*
X157660000Y-100817204D01*
X157649500Y-100919983D01*
X152184501Y-100919983D01*
X152155051Y-100862184D01*
X152155049Y-100862181D01*
X152155048Y-100862179D01*
X152030109Y-100690213D01*
X151879786Y-100539890D01*
X151707820Y-100414951D01*
X151518414Y-100318444D01*
X151518413Y-100318443D01*
X151518412Y-100318443D01*
X151316243Y-100252754D01*
X151316241Y-100252753D01*
X151316240Y-100252753D01*
X151154957Y-100227208D01*
X151106287Y-100219500D01*
X150893713Y-100219500D01*
X150845042Y-100227208D01*
X150683760Y-100252753D01*
X150481585Y-100318444D01*
X150292179Y-100414951D01*
X150120213Y-100539890D01*
X149969890Y-100690213D01*
X149844951Y-100862179D01*
X149748444Y-101051585D01*
X149682753Y-101253760D01*
X149649500Y-101463713D01*
X147350499Y-101463713D01*
X147350499Y-100919992D01*
X147339999Y-100817203D01*
X147284814Y-100650666D01*
X147192712Y-100501344D01*
X147068656Y-100377288D01*
X146919334Y-100285186D01*
X146752797Y-100230001D01*
X146752795Y-100230000D01*
X146650010Y-100219500D01*
X145349998Y-100219500D01*
X145349981Y-100219501D01*
X145247203Y-100230000D01*
X145247200Y-100230001D01*
X145080668Y-100285185D01*
X145080663Y-100285187D01*
X144931342Y-100377289D01*
X144807289Y-100501342D01*
X144715187Y-100650663D01*
X144715186Y-100650666D01*
X144660001Y-100817203D01*
X144660001Y-100817204D01*
X144660000Y-100817204D01*
X144649500Y-100919983D01*
X140684501Y-100919983D01*
X140655051Y-100862184D01*
X140655049Y-100862181D01*
X140655048Y-100862179D01*
X140530109Y-100690213D01*
X140379786Y-100539890D01*
X140207820Y-100414951D01*
X140018414Y-100318444D01*
X140018413Y-100318443D01*
X140018412Y-100318443D01*
X139816243Y-100252754D01*
X139816241Y-100252753D01*
X139816240Y-100252753D01*
X139654957Y-100227208D01*
X139606287Y-100219500D01*
X139393713Y-100219500D01*
X139345042Y-100227208D01*
X139183760Y-100252753D01*
X138981585Y-100318444D01*
X138792179Y-100414951D01*
X138620213Y-100539890D01*
X138469890Y-100690213D01*
X138344951Y-100862179D01*
X138248444Y-101051585D01*
X138182753Y-101253760D01*
X138149500Y-101463713D01*
X135850499Y-101463713D01*
X135850499Y-100919992D01*
X135839999Y-100817203D01*
X135784814Y-100650666D01*
X135692712Y-100501344D01*
X135568656Y-100377288D01*
X135419334Y-100285186D01*
X135252797Y-100230001D01*
X135252795Y-100230000D01*
X135150010Y-100219500D01*
X133849998Y-100219500D01*
X133849981Y-100219501D01*
X133747203Y-100230000D01*
X133747200Y-100230001D01*
X133580668Y-100285185D01*
X133580663Y-100285187D01*
X133431342Y-100377289D01*
X133307289Y-100501342D01*
X133215187Y-100650663D01*
X133215186Y-100650666D01*
X133160001Y-100817203D01*
X133160001Y-100817204D01*
X133160000Y-100817204D01*
X133149500Y-100919983D01*
X130500500Y-100919983D01*
X130500500Y-93274983D01*
X133149500Y-93274983D01*
X133149500Y-94725001D01*
X133149501Y-94725018D01*
X133160000Y-94827796D01*
X133160001Y-94827799D01*
X133202081Y-94954786D01*
X133215186Y-94994334D01*
X133307288Y-95143656D01*
X133431344Y-95267712D01*
X133580666Y-95359814D01*
X133747203Y-95414999D01*
X133849991Y-95425500D01*
X135150008Y-95425499D01*
X135252797Y-95414999D01*
X135419334Y-95359814D01*
X135568656Y-95267712D01*
X135692712Y-95143656D01*
X135784814Y-94994334D01*
X135839999Y-94827797D01*
X135850500Y-94725009D01*
X135850499Y-93818713D01*
X138149500Y-93818713D01*
X138149500Y-94181286D01*
X138182753Y-94391239D01*
X138248444Y-94593414D01*
X138344951Y-94782820D01*
X138469890Y-94954786D01*
X138620213Y-95105109D01*
X138792179Y-95230048D01*
X138792181Y-95230049D01*
X138792184Y-95230051D01*
X138981588Y-95326557D01*
X139183757Y-95392246D01*
X139393713Y-95425500D01*
X139393714Y-95425500D01*
X139606286Y-95425500D01*
X139606287Y-95425500D01*
X139816243Y-95392246D01*
X140018412Y-95326557D01*
X140207816Y-95230051D01*
X140229789Y-95214086D01*
X140379786Y-95105109D01*
X140379788Y-95105106D01*
X140379792Y-95105104D01*
X140530104Y-94954792D01*
X140530106Y-94954788D01*
X140530109Y-94954786D01*
X140655048Y-94782820D01*
X140655047Y-94782820D01*
X140655051Y-94782816D01*
X140751557Y-94593412D01*
X140817246Y-94391243D01*
X140850500Y-94181287D01*
X140850500Y-93818713D01*
X140817246Y-93608757D01*
X140751557Y-93406588D01*
X140684501Y-93274983D01*
X144649500Y-93274983D01*
X144649500Y-94725001D01*
X144649501Y-94725018D01*
X144660000Y-94827796D01*
X144660001Y-94827799D01*
X144702081Y-94954786D01*
X144715186Y-94994334D01*
X144807288Y-95143656D01*
X144931344Y-95267712D01*
X145080666Y-95359814D01*
X145247203Y-95414999D01*
X145349991Y-95425500D01*
X146650008Y-95425499D01*
X146752797Y-95414999D01*
X146919334Y-95359814D01*
X147068656Y-95267712D01*
X147192712Y-95143656D01*
X147284814Y-94994334D01*
X147339999Y-94827797D01*
X147350500Y-94725009D01*
X147350499Y-93818713D01*
X149649500Y-93818713D01*
X149649500Y-94181286D01*
X149682753Y-94391239D01*
X149748444Y-94593414D01*
X149844951Y-94782820D01*
X149969890Y-94954786D01*
X150120213Y-95105109D01*
X150292179Y-95230048D01*
X150292181Y-95230049D01*
X150292184Y-95230051D01*
X150481588Y-95326557D01*
X150683757Y-95392246D01*
X150893713Y-95425500D01*
X150893714Y-95425500D01*
X151106286Y-95425500D01*
X151106287Y-95425500D01*
X151316243Y-95392246D01*
X151518412Y-95326557D01*
X151707816Y-95230051D01*
X151729789Y-95214086D01*
X151879786Y-95105109D01*
X151879788Y-95105106D01*
X151879792Y-95105104D01*
X152030104Y-94954792D01*
X152030106Y-94954788D01*
X152030109Y-94954786D01*
X152155048Y-94782820D01*
X152155047Y-94782820D01*
X152155051Y-94782816D01*
X152251557Y-94593412D01*
X152317246Y-94391243D01*
X152350500Y-94181287D01*
X152350500Y-93818713D01*
X152317246Y-93608757D01*
X152251557Y-93406588D01*
X152184501Y-93274983D01*
X157649500Y-93274983D01*
X157649500Y-94725001D01*
X157649501Y-94725018D01*
X157660000Y-94827796D01*
X157660001Y-94827799D01*
X157702081Y-94954786D01*
X157715186Y-94994334D01*
X157807288Y-95143656D01*
X157931344Y-95267712D01*
X158080666Y-95359814D01*
X158247203Y-95414999D01*
X158349991Y-95425500D01*
X159650008Y-95425499D01*
X159752797Y-95414999D01*
X159919334Y-95359814D01*
X160068656Y-95267712D01*
X160192712Y-95143656D01*
X160284814Y-94994334D01*
X160339999Y-94827797D01*
X160350500Y-94725009D01*
X160350499Y-93818713D01*
X162649500Y-93818713D01*
X162649500Y-94181286D01*
X162682753Y-94391239D01*
X162748444Y-94593414D01*
X162844951Y-94782820D01*
X162969890Y-94954786D01*
X163120213Y-95105109D01*
X163292179Y-95230048D01*
X163292181Y-95230049D01*
X163292184Y-95230051D01*
X163481588Y-95326557D01*
X163683757Y-95392246D01*
X163893713Y-95425500D01*
X163893714Y-95425500D01*
X164106286Y-95425500D01*
X164106287Y-95425500D01*
X164316243Y-95392246D01*
X164518412Y-95326557D01*
X164707816Y-95230051D01*
X164729789Y-95214086D01*
X164879786Y-95105109D01*
X164879788Y-95105106D01*
X164879792Y-95105104D01*
X165030104Y-94954792D01*
X165030106Y-94954788D01*
X165030109Y-94954786D01*
X165155048Y-94782820D01*
X165155047Y-94782820D01*
X165155051Y-94782816D01*
X165251557Y-94593412D01*
X165317246Y-94391243D01*
X165350500Y-94181287D01*
X165350500Y-93818713D01*
X165317246Y-93608757D01*
X165251557Y-93406588D01*
X165184501Y-93274983D01*
X169149500Y-93274983D01*
X169149500Y-94725001D01*
X169149501Y-94725018D01*
X169160000Y-94827796D01*
X169160001Y-94827799D01*
X169202081Y-94954786D01*
X169215186Y-94994334D01*
X169307288Y-95143656D01*
X169431344Y-95267712D01*
X169580666Y-95359814D01*
X169747203Y-95414999D01*
X169849991Y-95425500D01*
X171150008Y-95425499D01*
X171252797Y-95414999D01*
X171419334Y-95359814D01*
X171568656Y-95267712D01*
X171692712Y-95143656D01*
X171784814Y-94994334D01*
X171839999Y-94827797D01*
X171850500Y-94725009D01*
X171850499Y-93818713D01*
X174149500Y-93818713D01*
X174149500Y-94181286D01*
X174182753Y-94391239D01*
X174248444Y-94593414D01*
X174344951Y-94782820D01*
X174469890Y-94954786D01*
X174620213Y-95105109D01*
X174792179Y-95230048D01*
X174792181Y-95230049D01*
X174792184Y-95230051D01*
X174981588Y-95326557D01*
X175183757Y-95392246D01*
X175393713Y-95425500D01*
X175393714Y-95425500D01*
X175606286Y-95425500D01*
X175606287Y-95425500D01*
X175816243Y-95392246D01*
X176018412Y-95326557D01*
X176207816Y-95230051D01*
X176229789Y-95214086D01*
X176379786Y-95105109D01*
X176379788Y-95105106D01*
X176379792Y-95105104D01*
X176530104Y-94954792D01*
X176530106Y-94954788D01*
X176530109Y-94954786D01*
X176655048Y-94782820D01*
X176655047Y-94782820D01*
X176655051Y-94782816D01*
X176751557Y-94593412D01*
X176817246Y-94391243D01*
X176850500Y-94181287D01*
X176850500Y-93818713D01*
X176817246Y-93608757D01*
X176751557Y-93406588D01*
X176655051Y-93217184D01*
X176655049Y-93217181D01*
X176655048Y-93217179D01*
X176530109Y-93045213D01*
X176379786Y-92894890D01*
X176207820Y-92769951D01*
X176018414Y-92673444D01*
X176018413Y-92673443D01*
X176018412Y-92673443D01*
X175816243Y-92607754D01*
X175816241Y-92607753D01*
X175816240Y-92607753D01*
X175654957Y-92582208D01*
X175606287Y-92574500D01*
X175393713Y-92574500D01*
X175345042Y-92582208D01*
X175183760Y-92607753D01*
X174981585Y-92673444D01*
X174792179Y-92769951D01*
X174620213Y-92894890D01*
X174469890Y-93045213D01*
X174344951Y-93217179D01*
X174248444Y-93406585D01*
X174182753Y-93608760D01*
X174149500Y-93818713D01*
X171850499Y-93818713D01*
X171850499Y-93274992D01*
X171839999Y-93172203D01*
X171784814Y-93005666D01*
X171692712Y-92856344D01*
X171568656Y-92732288D01*
X171419334Y-92640186D01*
X171252797Y-92585001D01*
X171252795Y-92585000D01*
X171150010Y-92574500D01*
X169849998Y-92574500D01*
X169849981Y-92574501D01*
X169747203Y-92585000D01*
X169747200Y-92585001D01*
X169580668Y-92640185D01*
X169580663Y-92640187D01*
X169431342Y-92732289D01*
X169307289Y-92856342D01*
X169215187Y-93005663D01*
X169215186Y-93005666D01*
X169160001Y-93172203D01*
X169160001Y-93172204D01*
X169160000Y-93172204D01*
X169149500Y-93274983D01*
X165184501Y-93274983D01*
X165155051Y-93217184D01*
X165155049Y-93217181D01*
X165155048Y-93217179D01*
X165030109Y-93045213D01*
X164879786Y-92894890D01*
X164707820Y-92769951D01*
X164518414Y-92673444D01*
X164518413Y-92673443D01*
X164518412Y-92673443D01*
X164316243Y-92607754D01*
X164316241Y-92607753D01*
X164316240Y-92607753D01*
X164154957Y-92582208D01*
X164106287Y-92574500D01*
X163893713Y-92574500D01*
X163845042Y-92582208D01*
X163683760Y-92607753D01*
X163481585Y-92673444D01*
X163292179Y-92769951D01*
X163120213Y-92894890D01*
X162969890Y-93045213D01*
X162844951Y-93217179D01*
X162748444Y-93406585D01*
X162682753Y-93608760D01*
X162649500Y-93818713D01*
X160350499Y-93818713D01*
X160350499Y-93274992D01*
X160339999Y-93172203D01*
X160284814Y-93005666D01*
X160192712Y-92856344D01*
X160068656Y-92732288D01*
X159919334Y-92640186D01*
X159752797Y-92585001D01*
X159752795Y-92585000D01*
X159650010Y-92574500D01*
X158349998Y-92574500D01*
X158349981Y-92574501D01*
X158247203Y-92585000D01*
X158247200Y-92585001D01*
X158080668Y-92640185D01*
X158080663Y-92640187D01*
X157931342Y-92732289D01*
X157807289Y-92856342D01*
X157715187Y-93005663D01*
X157715186Y-93005666D01*
X157660001Y-93172203D01*
X157660001Y-93172204D01*
X157660000Y-93172204D01*
X157649500Y-93274983D01*
X152184501Y-93274983D01*
X152155051Y-93217184D01*
X152155049Y-93217181D01*
X152155048Y-93217179D01*
X152030109Y-93045213D01*
X151879786Y-92894890D01*
X151707820Y-92769951D01*
X151518414Y-92673444D01*
X151518413Y-92673443D01*
X151518412Y-92673443D01*
X151316243Y-92607754D01*
X151316241Y-92607753D01*
X151316240Y-92607753D01*
X151154957Y-92582208D01*
X151106287Y-92574500D01*
X150893713Y-92574500D01*
X150845042Y-92582208D01*
X150683760Y-92607753D01*
X150481585Y-92673444D01*
X150292179Y-92769951D01*
X150120213Y-92894890D01*
X149969890Y-93045213D01*
X149844951Y-93217179D01*
X149748444Y-93406585D01*
X149682753Y-93608760D01*
X149649500Y-93818713D01*
X147350499Y-93818713D01*
X147350499Y-93274992D01*
X147339999Y-93172203D01*
X147284814Y-93005666D01*
X147192712Y-92856344D01*
X147068656Y-92732288D01*
X146919334Y-92640186D01*
X146752797Y-92585001D01*
X146752795Y-92585000D01*
X146650010Y-92574500D01*
X145349998Y-92574500D01*
X145349981Y-92574501D01*
X145247203Y-92585000D01*
X145247200Y-92585001D01*
X145080668Y-92640185D01*
X145080663Y-92640187D01*
X144931342Y-92732289D01*
X144807289Y-92856342D01*
X144715187Y-93005663D01*
X144715186Y-93005666D01*
X144660001Y-93172203D01*
X144660001Y-93172204D01*
X144660000Y-93172204D01*
X144649500Y-93274983D01*
X140684501Y-93274983D01*
X140655051Y-93217184D01*
X140655049Y-93217181D01*
X140655048Y-93217179D01*
X140530109Y-93045213D01*
X140379786Y-92894890D01*
X140207820Y-92769951D01*
X140018414Y-92673444D01*
X140018413Y-92673443D01*
X140018412Y-92673443D01*
X139816243Y-92607754D01*
X139816241Y-92607753D01*
X139816240Y-92607753D01*
X139654957Y-92582208D01*
X139606287Y-92574500D01*
X139393713Y-92574500D01*
X139345042Y-92582208D01*
X139183760Y-92607753D01*
X138981585Y-92673444D01*
X138792179Y-92769951D01*
X138620213Y-92894890D01*
X138469890Y-93045213D01*
X138344951Y-93217179D01*
X138248444Y-93406585D01*
X138182753Y-93608760D01*
X138149500Y-93818713D01*
X135850499Y-93818713D01*
X135850499Y-93274992D01*
X135839999Y-93172203D01*
X135784814Y-93005666D01*
X135692712Y-92856344D01*
X135568656Y-92732288D01*
X135419334Y-92640186D01*
X135252797Y-92585001D01*
X135252795Y-92585000D01*
X135150010Y-92574500D01*
X133849998Y-92574500D01*
X133849981Y-92574501D01*
X133747203Y-92585000D01*
X133747200Y-92585001D01*
X133580668Y-92640185D01*
X133580663Y-92640187D01*
X133431342Y-92732289D01*
X133307289Y-92856342D01*
X133215187Y-93005663D01*
X133215186Y-93005666D01*
X133160001Y-93172203D01*
X133160001Y-93172204D01*
X133160000Y-93172204D01*
X133149500Y-93274983D01*
X130500500Y-93274983D01*
X130500500Y-85919983D01*
X133149500Y-85919983D01*
X133149500Y-87370001D01*
X133149501Y-87370018D01*
X133160000Y-87472796D01*
X133160001Y-87472799D01*
X133167138Y-87494336D01*
X133215186Y-87639334D01*
X133307288Y-87788656D01*
X133431344Y-87912712D01*
X133580666Y-88004814D01*
X133747203Y-88059999D01*
X133849991Y-88070500D01*
X135150008Y-88070499D01*
X135252797Y-88059999D01*
X135419334Y-88004814D01*
X135568656Y-87912712D01*
X135692712Y-87788656D01*
X135784814Y-87639334D01*
X135839999Y-87472797D01*
X135850500Y-87370009D01*
X135850499Y-86463713D01*
X138149500Y-86463713D01*
X138149500Y-86826287D01*
X138182754Y-87036243D01*
X138244090Y-87225016D01*
X138248444Y-87238414D01*
X138344951Y-87427820D01*
X138469890Y-87599786D01*
X138620213Y-87750109D01*
X138792179Y-87875048D01*
X138792181Y-87875049D01*
X138792184Y-87875051D01*
X138981588Y-87971557D01*
X139183757Y-88037246D01*
X139393713Y-88070500D01*
X139393714Y-88070500D01*
X139606286Y-88070500D01*
X139606287Y-88070500D01*
X139816243Y-88037246D01*
X140018412Y-87971557D01*
X140207816Y-87875051D01*
X140274563Y-87826557D01*
X140379786Y-87750109D01*
X140379788Y-87750106D01*
X140379792Y-87750104D01*
X140530104Y-87599792D01*
X140530106Y-87599788D01*
X140530109Y-87599786D01*
X140655048Y-87427820D01*
X140655047Y-87427820D01*
X140655051Y-87427816D01*
X140751557Y-87238412D01*
X140817246Y-87036243D01*
X140850500Y-86826287D01*
X140850500Y-86463713D01*
X140817246Y-86253757D01*
X140751557Y-86051588D01*
X140655051Y-85862184D01*
X140655049Y-85862181D01*
X140642362Y-85844718D01*
X140642361Y-85844717D01*
X140591697Y-85774983D01*
X151149500Y-85774983D01*
X151149500Y-87225001D01*
X151149501Y-87225018D01*
X151160000Y-87327796D01*
X151160001Y-87327799D01*
X151193144Y-87427816D01*
X151215186Y-87494334D01*
X151307288Y-87643656D01*
X151431344Y-87767712D01*
X151580666Y-87859814D01*
X151747203Y-87914999D01*
X151849991Y-87925500D01*
X153150008Y-87925499D01*
X153252797Y-87914999D01*
X153419334Y-87859814D01*
X153568656Y-87767712D01*
X153692712Y-87643656D01*
X153784814Y-87494334D01*
X153839999Y-87327797D01*
X153850500Y-87225009D01*
X153850499Y-86318713D01*
X156149500Y-86318713D01*
X156149500Y-86681287D01*
X156182754Y-86891243D01*
X156229866Y-87036239D01*
X156248444Y-87093414D01*
X156344951Y-87282820D01*
X156469890Y-87454786D01*
X156620213Y-87605109D01*
X156792179Y-87730048D01*
X156792181Y-87730049D01*
X156792184Y-87730051D01*
X156981588Y-87826557D01*
X157183757Y-87892246D01*
X157393713Y-87925500D01*
X157393714Y-87925500D01*
X157606286Y-87925500D01*
X157606287Y-87925500D01*
X157816243Y-87892246D01*
X158018412Y-87826557D01*
X158207816Y-87730051D01*
X158229789Y-87714086D01*
X158379786Y-87605109D01*
X158379788Y-87605106D01*
X158379792Y-87605104D01*
X158530104Y-87454792D01*
X158530106Y-87454788D01*
X158530109Y-87454786D01*
X158655048Y-87282820D01*
X158655047Y-87282820D01*
X158655051Y-87282816D01*
X158751557Y-87093412D01*
X158817246Y-86891243D01*
X158850500Y-86681287D01*
X158850500Y-86318713D01*
X158817246Y-86108757D01*
X158751557Y-85906588D01*
X158684501Y-85774983D01*
X169149500Y-85774983D01*
X169149500Y-87225001D01*
X169149501Y-87225018D01*
X169160000Y-87327796D01*
X169160001Y-87327799D01*
X169193144Y-87427816D01*
X169215186Y-87494334D01*
X169307288Y-87643656D01*
X169431344Y-87767712D01*
X169580666Y-87859814D01*
X169747203Y-87914999D01*
X169849991Y-87925500D01*
X171150008Y-87925499D01*
X171252797Y-87914999D01*
X171419334Y-87859814D01*
X171568656Y-87767712D01*
X171692712Y-87643656D01*
X171784814Y-87494334D01*
X171839999Y-87327797D01*
X171850500Y-87225009D01*
X171850499Y-86318713D01*
X174149500Y-86318713D01*
X174149500Y-86681287D01*
X174182754Y-86891243D01*
X174229866Y-87036239D01*
X174248444Y-87093414D01*
X174344951Y-87282820D01*
X174469890Y-87454786D01*
X174620213Y-87605109D01*
X174792179Y-87730048D01*
X174792181Y-87730049D01*
X174792184Y-87730051D01*
X174981588Y-87826557D01*
X175183757Y-87892246D01*
X175393713Y-87925500D01*
X175393714Y-87925500D01*
X175606286Y-87925500D01*
X175606287Y-87925500D01*
X175816243Y-87892246D01*
X176018412Y-87826557D01*
X176207816Y-87730051D01*
X176229789Y-87714086D01*
X176379786Y-87605109D01*
X176379788Y-87605106D01*
X176379792Y-87605104D01*
X176530104Y-87454792D01*
X176530106Y-87454788D01*
X176530109Y-87454786D01*
X176655048Y-87282820D01*
X176655047Y-87282820D01*
X176655051Y-87282816D01*
X176751557Y-87093412D01*
X176817246Y-86891243D01*
X176850500Y-86681287D01*
X176850500Y-86318713D01*
X176817246Y-86108757D01*
X176751557Y-85906588D01*
X176655051Y-85717184D01*
X176655049Y-85717181D01*
X176655048Y-85717179D01*
X176530109Y-85545213D01*
X176379786Y-85394890D01*
X176207820Y-85269951D01*
X176018414Y-85173444D01*
X176018413Y-85173443D01*
X176018412Y-85173443D01*
X175816243Y-85107754D01*
X175816241Y-85107753D01*
X175816240Y-85107753D01*
X175654957Y-85082208D01*
X175606287Y-85074500D01*
X175393713Y-85074500D01*
X175345042Y-85082208D01*
X175183760Y-85107753D01*
X174981585Y-85173444D01*
X174792179Y-85269951D01*
X174620213Y-85394890D01*
X174469890Y-85545213D01*
X174344951Y-85717179D01*
X174248444Y-85906585D01*
X174182753Y-86108760D01*
X174149500Y-86318713D01*
X171850499Y-86318713D01*
X171850499Y-85774992D01*
X171839999Y-85672203D01*
X171784814Y-85505666D01*
X171692712Y-85356344D01*
X171568656Y-85232288D01*
X171419334Y-85140186D01*
X171252797Y-85085001D01*
X171252795Y-85085000D01*
X171150010Y-85074500D01*
X169849998Y-85074500D01*
X169849981Y-85074501D01*
X169747203Y-85085000D01*
X169747200Y-85085001D01*
X169580668Y-85140185D01*
X169580663Y-85140187D01*
X169431342Y-85232289D01*
X169307289Y-85356342D01*
X169215187Y-85505663D01*
X169215186Y-85505666D01*
X169160001Y-85672203D01*
X169160001Y-85672204D01*
X169160000Y-85672204D01*
X169149500Y-85774983D01*
X158684501Y-85774983D01*
X158655051Y-85717184D01*
X158655049Y-85717181D01*
X158655048Y-85717179D01*
X158530109Y-85545213D01*
X158379786Y-85394890D01*
X158207820Y-85269951D01*
X158018414Y-85173444D01*
X158018413Y-85173443D01*
X158018412Y-85173443D01*
X157816243Y-85107754D01*
X157816241Y-85107753D01*
X157816240Y-85107753D01*
X157654957Y-85082208D01*
X157606287Y-85074500D01*
X157393713Y-85074500D01*
X157345042Y-85082208D01*
X157183760Y-85107753D01*
X156981585Y-85173444D01*
X156792179Y-85269951D01*
X156620213Y-85394890D01*
X156469890Y-85545213D01*
X156344951Y-85717179D01*
X156248444Y-85906585D01*
X156182753Y-86108760D01*
X156149500Y-86318713D01*
X153850499Y-86318713D01*
X153850499Y-85774992D01*
X153839999Y-85672203D01*
X153784814Y-85505666D01*
X153692712Y-85356344D01*
X153568656Y-85232288D01*
X153419334Y-85140186D01*
X153252797Y-85085001D01*
X153252795Y-85085000D01*
X153150010Y-85074500D01*
X151849998Y-85074500D01*
X151849981Y-85074501D01*
X151747203Y-85085000D01*
X151747200Y-85085001D01*
X151580668Y-85140185D01*
X151580663Y-85140187D01*
X151431342Y-85232289D01*
X151307289Y-85356342D01*
X151215187Y-85505663D01*
X151215186Y-85505666D01*
X151160001Y-85672203D01*
X151160001Y-85672204D01*
X151160000Y-85672204D01*
X151149500Y-85774983D01*
X140591697Y-85774983D01*
X140530109Y-85690214D01*
X140530105Y-85690209D01*
X140379786Y-85539890D01*
X140207820Y-85414951D01*
X140018414Y-85318444D01*
X140018413Y-85318443D01*
X140018412Y-85318443D01*
X139816243Y-85252754D01*
X139816241Y-85252753D01*
X139816240Y-85252753D01*
X139654957Y-85227208D01*
X139606287Y-85219500D01*
X139393713Y-85219500D01*
X139345042Y-85227208D01*
X139183760Y-85252753D01*
X138981585Y-85318444D01*
X138792179Y-85414951D01*
X138620213Y-85539890D01*
X138469890Y-85690213D01*
X138344951Y-85862179D01*
X138248444Y-86051585D01*
X138182753Y-86253760D01*
X138172466Y-86318713D01*
X138149500Y-86463713D01*
X135850499Y-86463713D01*
X135850499Y-85919992D01*
X135849129Y-85906585D01*
X135839999Y-85817203D01*
X135839998Y-85817200D01*
X135784814Y-85650666D01*
X135692712Y-85501344D01*
X135568656Y-85377288D01*
X135419334Y-85285186D01*
X135252797Y-85230001D01*
X135252795Y-85230000D01*
X135150010Y-85219500D01*
X133849998Y-85219500D01*
X133849981Y-85219501D01*
X133747203Y-85230000D01*
X133747200Y-85230001D01*
X133580668Y-85285185D01*
X133580663Y-85285187D01*
X133431342Y-85377289D01*
X133307289Y-85501342D01*
X133215187Y-85650663D01*
X133215186Y-85650666D01*
X133160001Y-85817203D01*
X133160001Y-85817204D01*
X133160000Y-85817204D01*
X133149500Y-85919983D01*
X130500500Y-85919983D01*
X130500500Y-78852486D01*
X131749500Y-78852486D01*
X131749500Y-79147513D01*
X131768482Y-79291690D01*
X131788007Y-79439993D01*
X131788008Y-79439995D01*
X131864361Y-79724951D01*
X131864364Y-79724961D01*
X131977254Y-79997500D01*
X131977258Y-79997510D01*
X132124761Y-80252993D01*
X132304352Y-80487040D01*
X132304358Y-80487047D01*
X132512952Y-80695641D01*
X132512959Y-80695647D01*
X132747006Y-80875238D01*
X133002489Y-81022741D01*
X133002490Y-81022741D01*
X133002493Y-81022743D01*
X133275048Y-81135639D01*
X133560007Y-81211993D01*
X133852494Y-81250500D01*
X133852501Y-81250500D01*
X134147499Y-81250500D01*
X134147506Y-81250500D01*
X134439993Y-81211993D01*
X134724952Y-81135639D01*
X134997507Y-81022743D01*
X135252994Y-80875238D01*
X135487042Y-80695646D01*
X135695646Y-80487042D01*
X135875238Y-80252994D01*
X136022743Y-79997507D01*
X136135639Y-79724952D01*
X136211993Y-79439993D01*
X136250500Y-79147506D01*
X136250500Y-78852494D01*
X136250499Y-78852486D01*
X173749500Y-78852486D01*
X173749500Y-79147513D01*
X173768482Y-79291690D01*
X173788007Y-79439993D01*
X173788008Y-79439995D01*
X173864361Y-79724951D01*
X173864364Y-79724961D01*
X173977254Y-79997500D01*
X173977258Y-79997510D01*
X174124761Y-80252993D01*
X174304352Y-80487040D01*
X174304358Y-80487047D01*
X174512952Y-80695641D01*
X174512959Y-80695647D01*
X174747006Y-80875238D01*
X175002489Y-81022741D01*
X175002490Y-81022741D01*
X175002493Y-81022743D01*
X175275048Y-81135639D01*
X175560007Y-81211993D01*
X175852494Y-81250500D01*
X175852501Y-81250500D01*
X176147499Y-81250500D01*
X176147506Y-81250500D01*
X176439993Y-81211993D01*
X176724952Y-81135639D01*
X176997507Y-81022743D01*
X177252994Y-80875238D01*
X177487042Y-80695646D01*
X177695646Y-80487042D01*
X177875238Y-80252994D01*
X178022743Y-79997507D01*
X178135639Y-79724952D01*
X178211993Y-79439993D01*
X178250500Y-79147506D01*
X178250500Y-78852494D01*
X178211993Y-78560007D01*
X178135639Y-78275048D01*
X178022743Y-78002493D01*
X177875238Y-77747006D01*
X177695646Y-77512958D01*
X177695641Y-77512952D01*
X177487047Y-77304358D01*
X177487040Y-77304352D01*
X177252993Y-77124761D01*
X176997510Y-76977258D01*
X176997500Y-76977254D01*
X176724961Y-76864364D01*
X176724954Y-76864362D01*
X176724952Y-76864361D01*
X176439993Y-76788007D01*
X176391113Y-76781571D01*
X176147513Y-76749500D01*
X176147506Y-76749500D01*
X175852494Y-76749500D01*
X175852486Y-76749500D01*
X175574849Y-76786053D01*
X175560007Y-76788007D01*
X175534282Y-76794900D01*
X175275048Y-76864361D01*
X175275038Y-76864364D01*
X175002499Y-76977254D01*
X175002489Y-76977258D01*
X174747006Y-77124761D01*
X174512959Y-77304352D01*
X174512952Y-77304358D01*
X174304358Y-77512952D01*
X174304352Y-77512959D01*
X174124761Y-77747006D01*
X173977258Y-78002489D01*
X173977254Y-78002499D01*
X173864364Y-78275038D01*
X173864361Y-78275048D01*
X173788008Y-78560004D01*
X173788006Y-78560015D01*
X173749500Y-78852486D01*
X136250499Y-78852486D01*
X136211993Y-78560007D01*
X136135639Y-78275048D01*
X136022743Y-78002493D01*
X135875238Y-77747006D01*
X135695646Y-77512958D01*
X135695641Y-77512952D01*
X135487047Y-77304358D01*
X135487040Y-77304352D01*
X135252993Y-77124761D01*
X134997510Y-76977258D01*
X134997500Y-76977254D01*
X134724961Y-76864364D01*
X134724954Y-76864362D01*
X134724952Y-76864361D01*
X134439993Y-76788007D01*
X134391113Y-76781571D01*
X134147513Y-76749500D01*
X134147506Y-76749500D01*
X133852494Y-76749500D01*
X133852486Y-76749500D01*
X133574849Y-76786053D01*
X133560007Y-76788007D01*
X133534282Y-76794900D01*
X133275048Y-76864361D01*
X133275038Y-76864364D01*
X133002499Y-76977254D01*
X133002489Y-76977258D01*
X132747006Y-77124761D01*
X132512959Y-77304352D01*
X132512952Y-77304358D01*
X132304358Y-77512952D01*
X132304352Y-77512959D01*
X132124761Y-77747006D01*
X131977258Y-78002489D01*
X131977254Y-78002499D01*
X131864364Y-78275038D01*
X131864361Y-78275048D01*
X131788008Y-78560004D01*
X131788006Y-78560015D01*
X131749500Y-78852486D01*
X130500500Y-78852486D01*
X130500500Y-76950864D01*
X130500816Y-76942019D01*
X130503056Y-76910696D01*
X130511337Y-76794895D01*
X130513855Y-76777387D01*
X130555681Y-76585120D01*
X130560658Y-76568169D01*
X130629430Y-76383783D01*
X130636765Y-76367721D01*
X130731070Y-76195013D01*
X130740630Y-76180140D01*
X130858545Y-76022623D01*
X130870119Y-76009266D01*
X131009262Y-75870123D01*
X131022616Y-75858551D01*
X131180151Y-75740621D01*
X131195012Y-75731071D01*
X131367721Y-75636765D01*
X131383783Y-75629430D01*
X131568169Y-75560658D01*
X131585120Y-75555681D01*
X131777389Y-75513854D01*
X131794895Y-75511337D01*
X131942019Y-75500815D01*
X131950864Y-75500500D01*
X178049136Y-75500500D01*
X178057980Y-75500815D01*
G37*
%TD.AperFunction*%
%TD*%
M02*
